<svg width="12" height="12" viewBox="0 0 12 12" fill="none" xmlns="http://www.w3.org/2000/svg">
<g clip-path="url(#clip0_0_1588)">
<path fill-rule="evenodd" clip-rule="evenodd" d="M6.288 1.38876C6.21955 1.37042 6.1475 1.37042 6.07905 1.38876C6.05255 1.39586 6.00805 1.41466 5.91715 1.49046C5.82225 1.56956 5.70745 1.68389 5.531 1.86031C5.3546 2.03672 5.2403 2.15156 5.16115 2.24644C5.0854 2.33734 5.06655 2.38184 5.05945 2.40834C5.04115 2.47679 5.04115 2.54885 5.05945 2.6173C5.06655 2.6438 5.0854 2.68831 5.16115 2.77921C5.2403 2.87408 5.3546 2.98892 5.531 3.16534L8.83465 6.469C9.0111 6.6454 9.1259 6.7597 9.2208 6.83885C9.3117 6.9146 9.3562 6.93345 9.3827 6.94055C9.45115 6.95885 9.5232 6.95885 9.59165 6.94055C9.61815 6.93345 9.66265 6.9146 9.75355 6.83885C9.84845 6.7597 9.9633 6.6454 10.1397 6.469C10.3161 6.29255 10.4305 6.17775 10.5096 6.08285C10.5854 5.99195 10.6042 5.94745 10.6113 5.92095C10.6296 5.8525 10.6296 5.78045 10.6113 5.712C10.6042 5.6855 10.5854 5.641 10.5096 5.5501C10.4305 5.4552 10.3161 5.34035 10.1397 5.16395L9.7726 4.79688C9.5248 4.54907 9.5248 4.14729 9.7726 3.89948C9.95315 3.71894 10.0613 3.60965 10.129 3.52096C10.1602 3.48014 10.173 3.4557 10.1784 3.44292C10.1822 3.43383 10.182 3.43126 10.1819 3.43062C10.182 3.42998 10.1822 3.42717 10.1784 3.41808C10.173 3.4053 10.1602 3.38086 10.129 3.34004C10.0613 3.25135 9.95315 3.14206 9.7726 2.96152L9.0385 2.22738C8.85795 2.04684 8.74865 1.93868 8.65995 1.87101C8.61915 1.83987 8.5947 1.82698 8.5819 1.82165C8.57285 1.81786 8.57025 1.81805 8.5696 1.81809C8.56955 1.81809 8.56965 1.81809 8.5696 1.81809C8.5692 1.81809 8.56685 1.81757 8.5571 1.82165C8.5443 1.82698 8.51985 1.83987 8.47905 1.87101C8.4046 1.92781 8.31565 2.01313 8.18225 2.14583L9.0182 2.9818C9.16465 3.12825 9.16465 3.36568 9.0182 3.51213C8.87175 3.65858 8.6343 3.65858 8.48785 3.51213L6.83605 1.86031C6.65965 1.68389 6.5448 1.56956 6.4499 1.49046C6.359 1.41466 6.3145 1.39586 6.288 1.38876ZM7.65185 1.61545L7.3549 1.31851C7.1932 1.15676 7.05435 1.01791 6.9302 0.914421C6.7992 0.805176 6.65715 0.711211 6.48215 0.664311C6.2865 0.611896 6.08055 0.611896 5.88495 0.664311C5.7099 0.711211 5.56785 0.805176 5.43685 0.914421C5.31275 1.01791 5.1739 1.15676 5.01215 1.31851L4.98922 1.34146C4.82747 1.50319 4.68862 1.64203 4.58514 1.76614C4.47589 1.89716 4.38193 2.03919 4.33503 2.21423C4.28262 2.40984 4.28262 2.6158 4.33503 2.81142C4.38193 2.98645 4.47589 3.12848 4.58514 3.2595C4.68862 3.38362 4.82747 3.52245 4.98921 3.68418L5.28615 3.98111L3.98111 5.28615L3.68418 4.98921C3.52245 4.82747 3.38362 4.68862 3.2595 4.58514C3.12848 4.47589 2.98645 4.38193 2.81142 4.33503C2.6158 4.28262 2.40984 4.28261 2.21423 4.33503C2.03919 4.38193 1.89716 4.47589 1.76614 4.58514C1.64202 4.68863 1.50318 4.82748 1.34145 4.98922L1.31851 5.01215C1.15676 5.1739 1.01791 5.31275 0.914421 5.43685C0.805176 5.56785 0.711211 5.7099 0.664311 5.88495C0.611896 6.08055 0.611896 6.2865 0.664311 6.48215C0.711211 6.65715 0.805176 6.7992 0.914421 6.9302C1.01791 7.05435 1.15675 7.19315 1.31849 7.3549L1.32998 7.3664L1.61545 7.65185C1.48223 7.7856 1.36252 7.90905 1.27474 8.0241C1.16277 8.17085 1.0681 8.34705 1.0681 8.5695C1.0681 8.79195 1.16277 8.96815 1.27474 9.1149C1.37671 9.24855 1.52177 9.39355 1.68105 9.5528L2.44719 10.319C2.60643 10.4783 2.75147 10.6233 2.88511 10.7253C3.03186 10.8373 3.20803 10.9319 3.4305 10.9319C3.65297 10.9319 3.82914 10.8373 3.9759 10.7253C4.09094 10.6375 4.21442 10.5178 4.34815 10.3846L4.64512 10.6816C4.80685 10.8433 4.94568 10.9821 5.0698 11.0856C5.2008 11.1948 5.34285 11.2888 5.51785 11.3357C5.7135 11.3881 5.91945 11.3881 6.11505 11.3357C6.2901 11.2888 6.43215 11.1948 6.56315 11.0856C6.68725 10.9821 6.8261 10.8433 6.9878 10.6815L7.0108 10.6586C7.17255 10.4968 7.3114 10.358 7.41485 10.2339C7.5241 10.1029 7.61805 9.9608 7.66495 9.7858C7.7174 9.59015 7.7174 9.3842 7.66495 9.1886C7.61805 9.01355 7.5241 8.8715 7.41485 8.7405C7.3114 8.6164 7.1725 8.47755 7.01075 8.3158L6.71385 8.0189L8.0189 6.71385L8.3158 7.0108C8.47755 7.17255 8.6164 7.3114 8.7405 7.41485C8.8715 7.5241 9.01355 7.61805 9.1886 7.66495C9.3842 7.7174 9.59015 7.7174 9.78575 7.66495C9.9608 7.61805 10.1029 7.5241 10.2339 7.41485C10.358 7.3114 10.4968 7.17255 10.6586 7.0108L10.6815 6.98785C10.8433 6.8261 10.9821 6.68725 11.0856 6.56315C11.1948 6.43215 11.2888 6.2901 11.3357 6.11505C11.3881 5.91945 11.3881 5.7135 11.3357 5.51785C11.2888 5.34285 11.1948 5.2008 11.0856 5.0698C10.9821 4.94567 10.8433 4.80682 10.6815 4.64508L10.3846 4.34815C10.5178 4.21442 10.6375 4.09094 10.7253 3.9759C10.8373 3.82914 10.9319 3.65297 10.9319 3.4305C10.9319 3.20803 10.8373 3.03186 10.7253 2.88511C10.6233 2.75147 10.4783 2.60643 10.319 2.44719L9.5528 1.68104C9.39355 1.52177 9.24855 1.37671 9.1149 1.27474C8.96815 1.16277 8.79195 1.0681 8.5695 1.0681C8.34705 1.0681 8.17085 1.16277 8.0241 1.27474C7.90905 1.36252 7.7856 1.48223 7.65185 1.61545ZM10.303 4.26655C10.3029 4.2665 10.303 4.2666 10.303 4.26655V4.26655ZM7.48855 6.18355L5.81645 4.51144L4.51144 5.81645L6.18355 7.48855L7.48855 6.18355ZM2.14583 8.18225C2.01313 8.31565 1.92781 8.4046 1.87101 8.47905C1.83987 8.51985 1.82698 8.5443 1.82165 8.5571C1.81786 8.56615 1.81805 8.56875 1.81809 8.5694C1.81805 8.57005 1.81786 8.57285 1.82165 8.5819C1.82698 8.5947 1.83987 8.61915 1.87101 8.65995C1.93868 8.74865 2.04684 8.85795 2.22738 9.0385L2.96152 9.7726C3.14206 9.95315 3.25135 10.0613 3.34004 10.129C3.38086 10.1602 3.4053 10.173 3.41808 10.1784C3.42787 10.1825 3.4301 10.1819 3.4305 10.1819C3.43045 10.1819 3.43053 10.1819 3.4305 10.1819C3.43114 10.182 3.43383 10.1822 3.44292 10.1784C3.4557 10.173 3.48014 10.1602 3.52096 10.129C3.60965 10.0613 3.71894 9.95315 3.89948 9.7726C4.14729 9.5248 4.54907 9.5248 4.79688 9.7726L5.16395 10.1397C5.34035 10.3161 5.4552 10.4305 5.5501 10.5096C5.641 10.5854 5.6855 10.6042 5.712 10.6113C5.78045 10.6296 5.8525 10.6296 5.92095 10.6113C5.94745 10.6042 5.99195 10.5854 6.08285 10.5096C6.17775 10.4305 6.29255 10.3161 6.469 10.1397C6.6454 9.9633 6.7597 9.84845 6.83885 9.75355C6.91465 9.66265 6.93345 9.61815 6.94055 9.59165C6.95885 9.5232 6.95885 9.45115 6.94055 9.3827C6.93345 9.3562 6.9146 9.3117 6.83885 9.2208C6.7597 9.1259 6.6454 9.0111 6.469 8.83465L3.16534 5.531C2.98892 5.3546 2.87408 5.2403 2.77921 5.16115C2.68831 5.0854 2.6438 5.06655 2.6173 5.05945C2.54886 5.04115 2.47679 5.04115 2.40834 5.05945C2.38184 5.06655 2.33734 5.0854 2.24644 5.16115C2.15156 5.2403 2.03672 5.3546 1.86031 5.531C1.68389 5.70745 1.56956 5.82225 1.49046 5.91715C1.41466 6.00805 1.39586 6.05255 1.38876 6.07905C1.37042 6.1475 1.37042 6.21955 1.38876 6.288C1.39586 6.3145 1.41466 6.359 1.49046 6.4499C1.56956 6.5448 1.68389 6.65965 1.86031 6.83605L3.51213 8.48785C3.65858 8.6343 3.65858 8.87175 3.51213 9.0182C3.36568 9.16465 3.12825 9.16465 2.9818 9.0182L2.14583 8.18225Z" fill="#06C44F"/>
</g>
<defs>
<clipPath id="clip0_0_1588">
<rect width="12" height="12" fill="white"/>
</clipPath>
</defs>
</svg>
