<svg width="20" height="20" viewBox="0 0 20 20" fill="none" xmlns="http://www.w3.org/2000/svg">
<path d="M10.0013 11.4019V10.2533M10.0013 11.4019C8.83519 11.4019 7.66906 11.2743 6.50295 11.0192M10.0013 11.4019C11.1677 11.4019 12.3342 11.2744 13.5007 11.0192M6.50295 11.0192C5.61069 10.824 4.71845 10.554 3.82619 10.2094C3.46957 10.0716 3.29125 10.0028 3.1689 9.84502C2.9659 9.58334 3.00259 9.21885 3.00259 8.90712C3.00259 8.0442 3.00259 6.91204 3.21311 6.68671C3.61165 6.26016 4.37247 6.65278 4.81499 6.79633C8.27251 7.91792 11.7301 7.91792 15.1876 6.79633C15.6301 6.65278 16.3909 6.26016 16.7895 6.68671C17 6.91204 17 8.0442 17 8.90712C17 9.33992 17 9.55632 16.9048 9.73507C16.7585 10.0097 16.4496 10.1039 16.1764 10.2094C15.2845 10.5538 14.3926 10.824 13.5007 11.0192M6.50295 11.0192L6.50193 9.87028M13.5007 11.0192V9.87028" stroke="#100F0F" stroke-width="1.0498" stroke-linecap="round" stroke-linejoin="round"/>
<path d="M14.8998 14.9058C11.6337 15.8409 8.36762 15.8409 5.10156 14.9058" stroke="#100F0F" stroke-width="1.0498" stroke-linecap="round" stroke-linejoin="round"/>
<path d="M15.0321 3.69971C14.6283 4.61747 14.2573 6.19078 14.2573 6.91187M4.97109 3.69971C5.37486 4.61747 5.7459 6.19078 5.7459 6.91187M5.37959 12.4569C5.07246 13.4233 4.26077 15.3341 4.40337 16.3005M14.6284 12.4569C14.9356 13.4233 15.7473 15.3341 15.6047 16.3005" stroke="#100F0F" stroke-width="1.0498" stroke-linecap="round" stroke-linejoin="round"/>
</svg>
