<svg width="24" height="24" viewBox="0 0 24 24" fill="none" xmlns="http://www.w3.org/2000/svg">
<rect width="24" height="24" rx="12" fill="#06C44F"/>
<path d="M6 8.66667C6 7.95942 6.28095 7.28115 6.78105 6.78105C7.28115 6.28095 7.95942 6 8.66667 6H15.3333C16.0406 6 16.7189 6.28095 17.219 6.78105C17.719 7.28115 18 7.95942 18 8.66667V15.3333C18 16.0406 17.719 16.7189 17.219 17.219C16.7189 17.719 16.0406 18 15.3333 18H8.66667C7.95942 18 7.28115 17.719 6.78105 17.219C6.28095 16.7189 6 16.0406 6 15.3333V8.66667Z" stroke="white" stroke-width="1.33333" stroke-linecap="round" stroke-linejoin="round"/>
<path d="M12.0011 8.66651C13.3051 8.66651 14.4838 9.20118 15.3344 10.0632L13.3638 11.9992C12.9941 11.6568 12.5089 11.4666 12.0051 11.4665C11.5014 11.4664 11.0162 11.6564 10.6464 11.9985L8.67578 10.0632C9.11014 9.61981 9.62883 9.26783 10.2013 9.02796C10.7738 8.7881 11.3884 8.66521 12.0091 8.66651H12.0011Z" stroke="white" stroke-width="1.33333" stroke-linecap="round" stroke-linejoin="round"/>
</svg>
