<svg width="16" height="16" viewBox="0 0 16 16" fill="none" xmlns="http://www.w3.org/2000/svg">
<g clip-path="url(#clip0_0_1682)">
<path fill-rule="evenodd" clip-rule="evenodd" d="M8.00065 1.8335C4.5949 1.8335 1.83398 4.59441 1.83398 8.00016C1.83398 11.4059 4.5949 14.1668 8.00065 14.1668C11.4064 14.1668 14.1673 11.4059 14.1673 8.00016C14.1673 4.59441 11.4064 1.8335 8.00065 1.8335ZM0.833984 8.00016C0.833984 4.04212 4.04261 0.833496 8.00065 0.833496C11.9587 0.833496 15.1673 4.04212 15.1673 8.00016C15.1673 11.9582 11.9587 15.1668 8.00065 15.1668C4.04261 15.1668 0.833984 11.9582 0.833984 8.00016ZM6.6471 5.64661C6.84238 5.45135 7.15892 5.45135 7.35418 5.64661L9.35418 7.64663C9.54945 7.8419 9.54945 8.15843 9.35418 8.3537L7.35418 10.3537C7.15892 10.549 6.84238 10.549 6.6471 10.3537C6.45184 10.1584 6.45184 9.8419 6.6471 9.64663L8.29352 8.00016L6.6471 6.35372C6.45184 6.15846 6.45184 5.84187 6.6471 5.64661Z" fill="#C1C1C1"/>
</g>
<defs>
<clipPath id="clip0_0_1682">
<rect width="16" height="16" fill="white"/>
</clipPath>
</defs>
</svg>
