<svg width="16" height="16" viewBox="0 0 16 16" fill="none" xmlns="http://www.w3.org/2000/svg">
<g clip-path="url(#clip0_0_1680)">
<path fill-rule="evenodd" clip-rule="evenodd" d="M7.99935 1.8335C11.4051 1.8335 14.166 4.59441 14.166 8.00016C14.166 11.4059 11.4051 14.1668 7.99935 14.1668C4.59362 14.1668 1.83268 11.4059 1.83268 8.00016C1.83268 4.59441 4.59362 1.8335 7.99935 1.8335ZM15.166 8.00016C15.166 4.04212 11.9574 0.833496 7.99935 0.833496C4.04128 0.833496 0.832684 4.04212 0.832684 8.00016C0.832684 11.9582 4.04128 15.1668 7.99935 15.1668C11.9574 15.1668 15.166 11.9582 15.166 8.00016ZM9.3529 5.64661C9.15762 5.45135 8.84108 5.45135 8.64582 5.64661L6.64582 7.64663C6.45055 7.8419 6.45055 8.15843 6.64582 8.3537L8.64582 10.3537C8.84108 10.549 9.15762 10.549 9.3529 10.3537C9.54816 10.1584 9.54816 9.8419 9.3529 9.64663L7.70648 8.00016L9.3529 6.35372C9.54816 6.15846 9.54816 5.84187 9.3529 5.64661Z" fill="#C1C1C1"/>
</g>
<defs>
<clipPath id="clip0_0_1680">
<rect width="16" height="16" fill="white" transform="matrix(-1 0 0 1 16 0)"/>
</clipPath>
</defs>
</svg>
