<svg width="16" height="16" viewBox="0 0 16 16" fill="none" xmlns="http://www.w3.org/2000/svg">
<path d="M6.66797 4L8.0013 7.33333M8.0013 7.33333H10.0013C10.3549 7.33333 10.6941 7.19286 10.9441 6.94281C11.1942 6.69276 11.3346 6.35362 11.3346 6V3.33333C11.3346 2.97971 11.1942 2.64057 10.9441 2.39052C10.6941 2.14048 10.3549 2 10.0013 2H6.0013C5.64768 2 5.30854 2.14048 5.05849 2.39052C4.80844 2.64057 4.66797 2.97971 4.66797 3.33333V6C4.66797 6.35362 4.80844 6.69276 5.05849 6.94281C5.30854 7.19286 5.64768 7.33333 6.0013 7.33333H8.0013Z" stroke="#100F0F" stroke-linecap="round" stroke-linejoin="round"/>
<path d="M11.3333 3.3335H12.6667C13.0203 3.3335 13.3594 3.47397 13.6095 3.72402C13.8595 3.97407 14 4.31321 14 4.66683V12.6668C14 13.0205 13.8595 13.3596 13.6095 13.6096C13.3594 13.8597 13.0203 14.0002 12.6667 14.0002H3.33333C2.97971 14.0002 2.64057 13.8597 2.39052 13.6096C2.14048 13.3596 2 13.0205 2 12.6668V4.66683C2 4.31321 2.14048 3.97407 2.39052 3.72402C2.64057 3.47397 2.97971 3.3335 3.33333 3.3335H4.66667M6.66667 11.3335H9.33333" stroke="#100F0F" stroke-linecap="round" stroke-linejoin="round"/>
</svg>
