<svg width="20" height="20" viewBox="0 0 20 20" fill="none" xmlns="http://www.w3.org/2000/svg">
<path d="M8.60156 6L9.9349 9.33333M9.9349 9.33333H11.9349C12.2885 9.33333 12.6277 9.19286 12.8777 8.94281C13.1278 8.69276 13.2682 8.35362 13.2682 8V5.33333C13.2682 4.97971 13.1278 4.64057 12.8777 4.39052C12.6277 4.14048 12.2885 4 11.9349 4H7.9349C7.58127 4 7.24214 4.14048 6.99209 4.39052C6.74204 4.64057 6.60156 4.97971 6.60156 5.33333V8C6.60156 8.35362 6.74204 8.69276 6.99209 8.94281C7.24214 9.19286 7.58127 9.33333 7.9349 9.33333H9.9349Z" stroke="#100F0F" stroke-linecap="round" stroke-linejoin="round"/>
<path d="M13.2669 5.3335H14.6003C14.9539 5.3335 15.293 5.47397 15.5431 5.72402C15.7931 5.97407 15.9336 6.31321 15.9336 6.66683V14.6668C15.9336 15.0205 15.7931 15.3596 15.5431 15.6096C15.293 15.8597 14.9539 16.0002 14.6003 16.0002H5.26693C4.91331 16.0002 4.57417 15.8597 4.32412 15.6096C4.07407 15.3596 3.93359 15.0205 3.93359 14.6668V6.66683C3.93359 6.31321 4.07407 5.97407 4.32412 5.72402C4.57417 5.47397 4.91331 5.3335 5.26693 5.3335H6.60026M8.60026 13.3335H11.2669" stroke="#100F0F" stroke-linecap="round" stroke-linejoin="round"/>
</svg>
