<svg width="24" height="24" viewBox="0 0 24 24" fill="none" xmlns="http://www.w3.org/2000/svg">
<path d="M6.99834 9.5013C6.99834 10.3272 6.32714 10.9967 5.49917 10.9967C4.6712 10.9967 4 10.3272 4 9.5013C4 8.67539 4.6712 8.00586 5.49917 8.00586C6.32714 8.00586 6.99834 8.67539 6.99834 9.5013Z" stroke="#727775" stroke-width="1.5"/>
<path d="M8.96608 3L9.82461 8.77139C9.85344 8.96518 9.86791 9.16082 9.86791 9.35673V9.4375C9.86791 9.64662 9.84593 9.85516 9.80231 10.0597L9.7525 10.2933C9.73546 10.3732 9.70865 10.4507 9.67267 10.5241L6.99219 15.989M10.4244 8.75435L15.9424 11.0591L16.5009 11.3014C16.8391 11.4481 17.0969 11.7338 17.2078 12.0846L20.0022 20.999M9.50962 11.9597L14.6344 13.9708M14.6344 13.9708L12.0187 20.8732M14.6344 13.9708L16.8167 11.806" stroke="#727775" stroke-width="1.5" stroke-linecap="round" stroke-linejoin="round"/>
</svg>
