<svg width="24" height="24" viewBox="0 0 24 24" fill="none" xmlns="http://www.w3.org/2000/svg">
<path d="M8.99394 4.49805C8.99394 5.32648 8.32197 5.99805 7.49307 5.99805C6.66415 5.99805 5.99219 5.32648 5.99219 4.49805C5.99219 3.66962 6.66415 2.99805 7.49307 2.99805C8.32197 2.99805 8.99394 3.66962 8.99394 4.49805Z" stroke="#727775" stroke-width="1.5"/>
<path d="M19.999 8.99805C19.4152 8.99805 18.8654 8.7275 18.5151 8.26779L17.4877 6.91965C17.3515 6.74102 17.2834 6.65171 17.2172 6.58149C16.6475 5.97771 15.7375 5.8243 14.9961 6.20706" stroke="#727775" stroke-width="1.5" stroke-linecap="round" stroke-linejoin="round"/>
<path d="M21.0001 16.998C19.7139 16.998 18.4893 16.4454 17.6348 15.4796L16.9562 14.7125C15.9744 13.6027 14.6679 12.8554 13.2434 12.5639M10.8672 12.427C10.5571 12.427 10.4021 12.427 10.2584 12.4061C9.01821 12.2263 8.31269 10.808 7.49219 9.99805" stroke="#727775" stroke-width="1.5" stroke-linecap="round" stroke-linejoin="round"/>
<path d="M13.0001 6.97656L9.90568 8.38788L7.84511 8.25801M7.84511 8.25801L5.58276 8.06463C5.23537 8.03494 4.89761 8.18832 4.69135 8.46941L4.61504 8.57341L3 12.8777V12.8965C3 13.2011 3.13884 13.4891 3.37715 13.6789L5.19051 15.1226M7.84511 8.25801L5.19051 15.1226M6.36002 21.0038V16.3656L6.17439 16.0317L5.19051 15.1226" stroke="#727775" stroke-width="1.5" stroke-linecap="round" stroke-linejoin="round"/>
</svg>
