<svg width="16" height="16" viewBox="0 0 16 16" fill="none" xmlns="http://www.w3.org/2000/svg">
<path d="M10.3346 6.66675C9.78237 6.66675 9.33464 6.21903 9.33464 5.66675M5.66797 6.66675C6.22026 6.66675 6.66797 6.21903 6.66797 5.66675" stroke="#06C44F" stroke-width="1.33333" stroke-linecap="round" stroke-linejoin="round"/>
<path d="M9.33203 1.33325V1.76191C9.33203 2.15311 9.33203 2.34871 9.37563 2.51495C9.4807 2.91586 9.76623 3.24511 10.1483 3.40584C10.3067 3.47249 10.5003 3.50015 10.8876 3.55547C11.6622 3.66613 12.0494 3.72145 12.3662 3.85475C13.1302 4.17622 13.7014 4.8347 13.9116 5.63652C13.9987 5.96899 13.9987 6.3602 13.9987 7.14258V14.6666" stroke="#06C44F" stroke-width="1.33333" stroke-linecap="round" stroke-linejoin="round"/>
<path d="M6.66667 1.33325V1.76191C6.66667 2.15311 6.66667 2.34871 6.62309 2.51495C6.51799 2.91586 6.23245 3.24511 5.85043 3.40584C5.69203 3.47249 5.49839 3.50015 5.11111 3.55547C4.33656 3.66613 3.94929 3.72145 3.63247 3.85475C2.86844 4.17622 2.29734 4.8347 2.08715 5.63652C2 5.96899 2 6.3602 2 7.14258V14.6666" stroke="#06C44F" stroke-width="1.33333" stroke-linecap="round" stroke-linejoin="round"/>
<path d="M8 8.66675V14.6667" stroke="#06C44F" stroke-width="1.33333" stroke-linecap="round" stroke-linejoin="round"/>
<path d="M12.0013 7.66675C12.0013 7.66675 11.6379 9.57582 11.67 11.4849C11.6913 12.7515 12.0013 14.6667 12.0013 14.6667" stroke="#06C44F" stroke-width="1.33333" stroke-linecap="round" stroke-linejoin="round"/>
<path d="M4 7.66675C4 7.66675 4.36342 9.57582 4.33133 11.4849C4.31003 12.7515 4 14.6667 4 14.6667" stroke="#06C44F" stroke-width="1.33333" stroke-linecap="round" stroke-linejoin="round"/>
</svg>
