<svg width="16" height="16" viewBox="0 0 16 16" fill="none" xmlns="http://www.w3.org/2000/svg">
<g clip-path="url(#clip0_0_3468)">
<path fill-rule="evenodd" clip-rule="evenodd" d="M8.3827 1.85159C8.29143 1.82714 8.19537 1.82714 8.1041 1.85159C8.06877 1.86106 8.00943 1.88613 7.88823 1.98719C7.7617 2.09267 7.60863 2.24511 7.37337 2.48033C7.13817 2.71555 6.98577 2.86867 6.88023 2.99517C6.77923 3.11637 6.7541 3.17571 6.74463 3.21104C6.72023 3.3023 6.72023 3.39839 6.74463 3.48965C6.7541 3.52499 6.77923 3.58433 6.88023 3.70553C6.98577 3.83203 7.13817 3.98515 7.37337 4.22037L11.7782 8.62525C12.0135 8.86045 12.1666 9.01285 12.2931 9.11839C12.4143 9.21939 12.4736 9.24452 12.509 9.25399C12.6002 9.27839 12.6963 9.27839 12.7876 9.25399C12.8229 9.24452 12.8822 9.21939 13.0034 9.11839C13.13 9.01285 13.2831 8.86045 13.5183 8.62525C13.7535 8.38999 13.906 8.23692 14.0114 8.11039C14.1125 7.98919 14.1376 7.92985 14.147 7.89452C14.1715 7.80325 14.1715 7.70719 14.147 7.61592C14.1376 7.58059 14.1125 7.52125 14.0114 7.40005C13.906 7.27352 13.7535 7.12039 13.5183 6.88519L13.0288 6.39576C12.6984 6.06535 12.6984 5.52964 13.0288 5.19922C13.2696 4.95851 13.4138 4.81279 13.504 4.69453C13.5456 4.64011 13.5627 4.60752 13.5698 4.59048C13.5749 4.57836 13.5746 4.57493 13.5746 4.57407C13.5746 4.57322 13.5749 4.56947 13.5698 4.55735C13.5627 4.54032 13.5456 4.50773 13.504 4.45331C13.4138 4.33505 13.2696 4.18933 13.0288 3.94861L12.05 2.96975C11.8093 2.72904 11.6636 2.58483 11.5453 2.49459C11.4909 2.45307 11.4583 2.43589 11.4412 2.42879C11.4292 2.42373 11.4257 2.42398 11.4248 2.42404C11.4248 2.42404 11.4249 2.42404 11.4248 2.42404C11.4243 2.42404 11.4212 2.42334 11.4082 2.42879C11.3911 2.43589 11.3585 2.45307 11.3041 2.49459C11.2048 2.57033 11.0862 2.68409 10.9084 2.86103L12.023 3.97565C12.2182 4.17091 12.2182 4.48749 12.023 4.68276C11.8277 4.87802 11.5111 4.87802 11.3158 4.68276L9.11343 2.48033C8.87823 2.24511 8.7251 2.09267 8.59857 1.98719C8.47737 1.88613 8.41803 1.86106 8.3827 1.85159ZM10.2012 2.15385L9.80523 1.75793C9.58963 1.54227 9.4045 1.35713 9.23897 1.21915C9.0643 1.07349 8.8749 0.9482 8.64157 0.885667C8.3807 0.81578 8.1061 0.81578 7.8453 0.885667C7.6119 0.9482 7.4225 1.07349 7.24783 1.21915C7.08237 1.35713 6.89723 1.54227 6.68157 1.75793L6.65099 1.78853C6.43533 2.00417 6.25019 2.18929 6.11221 2.35477C5.96655 2.52947 5.84127 2.71884 5.77873 2.95222C5.70885 3.21304 5.70885 3.48765 5.77873 3.74847C5.84127 3.98185 5.96655 4.17123 6.11221 4.34592C6.25019 4.51141 6.43532 4.69652 6.65098 4.91216L7.0469 5.30806L5.30684 7.04812L4.91094 6.6522C4.6953 6.43654 4.51019 6.25141 4.3447 6.11343C4.17001 5.96777 3.98063 5.84249 3.74725 5.77995C3.48643 5.71007 3.21182 5.71007 2.951 5.77995C2.71762 5.84249 2.52825 5.96777 2.35355 6.11343C2.18806 6.25142 2.00294 6.43655 1.78729 6.65221L1.75671 6.68279C1.54105 6.89845 1.35591 7.08359 1.21793 7.24905C1.07227 7.42372 0.94698 7.61312 0.884446 7.84652C0.81456 8.10732 0.81456 8.38192 0.884446 8.64279C0.94698 8.87612 1.07227 9.06552 1.21793 9.24019C1.35591 9.40572 1.54103 9.59079 1.75669 9.80645L1.772 9.82179L2.15263 10.2024C1.97501 10.3807 1.81539 10.5453 1.69835 10.6987C1.54906 10.8944 1.42283 11.1293 1.42283 11.4259C1.42283 11.7225 1.54906 11.9575 1.69835 12.1531C1.83431 12.3313 2.02772 12.5247 2.24009 12.737L3.26161 13.7585C3.47394 13.9709 3.66732 14.1643 3.84551 14.3003C4.04118 14.4496 4.27607 14.5758 4.5727 14.5758C4.86933 14.5758 5.10422 14.4496 5.29989 14.3003C5.45328 14.1833 5.61793 14.0236 5.79623 13.846L6.19219 14.242C6.40783 14.4576 6.59293 14.6427 6.75843 14.7807C6.9331 14.9263 7.1225 15.0517 7.35583 15.1142C7.6167 15.1841 7.8913 15.1841 8.1521 15.1142C8.3855 15.0517 8.5749 14.9263 8.74957 14.7807C8.91503 14.6427 9.10017 14.4576 9.31577 14.2419L9.34643 14.2113C9.5621 13.9957 9.74723 13.8106 9.88517 13.6451C10.0308 13.4704 10.1561 13.281 10.2186 13.0477C10.2886 12.7868 10.2886 12.5122 10.2186 12.2514C10.1561 12.018 10.0308 11.8286 9.88517 11.6539C9.74723 11.4885 9.56203 11.3033 9.34637 11.0877L8.9505 10.6918L10.6906 8.95172L11.0864 9.34765C11.3021 9.56332 11.4872 9.74845 11.6527 9.88639C11.8274 10.0321 12.0168 10.1573 12.2502 10.2199C12.511 10.2898 12.7856 10.2898 13.0464 10.2199C13.2798 10.1573 13.4692 10.0321 13.6438 9.88639C13.8094 9.74845 13.9944 9.56332 14.2101 9.34765L14.2407 9.31705C14.4564 9.10139 14.6415 8.91625 14.7795 8.75079C14.9251 8.57612 15.0504 8.38672 15.113 8.15332C15.1828 7.89252 15.1828 7.61792 15.113 7.35705C15.0504 7.12372 14.9251 6.93432 14.7795 6.75965C14.6415 6.59414 14.4564 6.40901 14.2407 6.19336L13.8448 5.79745C14.0224 5.61915 14.182 5.4545 14.299 5.30111C14.4484 5.10544 14.5746 4.87055 14.5746 4.57392C14.5746 4.27729 14.4484 4.0424 14.299 3.84673C14.1631 3.66854 13.9697 3.47516 13.7573 3.26283L12.7358 2.24131C12.5234 2.02894 12.3301 1.83553 12.1519 1.69957C11.9562 1.55028 11.7213 1.42405 11.4247 1.42405C11.1281 1.42405 10.8932 1.55028 10.6975 1.69957C10.5441 1.81661 10.3795 1.97623 10.2012 2.15385ZM13.736 5.68865C13.7359 5.68859 13.736 5.68871 13.736 5.68865V5.68865ZM9.98343 8.24465L7.75397 6.01517L6.01395 7.75519L8.24343 9.98465L9.98343 8.24465ZM2.85981 10.9096C2.68287 11.0875 2.56911 11.2061 2.49337 11.3053C2.45185 11.3597 2.43467 11.3923 2.42757 11.4094C2.42251 11.4215 2.42276 11.4249 2.42282 11.4258C2.42276 11.4267 2.42251 11.4304 2.42757 11.4425C2.43467 11.4595 2.45185 11.4921 2.49337 11.5465C2.58361 11.6648 2.72782 11.8105 2.96854 12.0513L3.94739 13.0301C4.18811 13.2708 4.33383 13.415 4.45209 13.5053C4.50651 13.5468 4.5391 13.5639 4.55613 13.5711C4.56919 13.5765 4.57217 13.5758 4.5727 13.5758C4.57263 13.5758 4.57274 13.5758 4.5727 13.5758C4.57355 13.5759 4.57714 13.5759 4.58926 13.5711C4.6063 13.5639 4.63889 13.5468 4.69331 13.5053C4.81157 13.415 4.95729 13.2708 5.198 13.0301C5.52842 12.6997 6.06413 12.6997 6.39454 13.0301L6.88397 13.5195C7.11917 13.7547 7.2723 13.9072 7.39883 14.0127C7.52003 14.1137 7.57937 14.1388 7.6147 14.1483C7.70597 14.1727 7.80203 14.1727 7.8933 14.1483C7.92863 14.1388 7.98797 14.1137 8.10917 14.0127C8.2357 13.9072 8.38877 13.7547 8.62403 13.5195C8.85923 13.2843 9.01163 13.1312 9.11717 13.0047C9.21823 12.8835 9.2433 12.8241 9.25277 12.7888C9.27717 12.6975 9.27717 12.6015 9.25277 12.5102C9.2433 12.4749 9.21817 12.4155 9.11717 12.2943C9.01163 12.1678 8.85923 12.0147 8.62403 11.7795L4.21915 7.37459C3.98393 7.13939 3.83081 6.98699 3.70431 6.88145C3.58311 6.78045 3.52377 6.75532 3.48843 6.74585C3.39717 6.72145 3.30108 6.72145 3.20982 6.74585C3.17449 6.75532 3.11515 6.78045 2.99395 6.88145C2.86745 6.98699 2.71433 7.13939 2.47911 7.37459C2.24389 7.60985 2.09145 7.76292 1.98597 7.88945C1.88491 8.01065 1.85984 8.06999 1.85037 8.10532C1.82592 8.19659 1.82592 8.29265 1.85037 8.38392C1.85984 8.41925 1.88491 8.47859 1.98597 8.59979C2.09145 8.72632 2.24389 8.87945 2.47911 9.11465L4.68154 11.3171C4.8768 11.5123 4.8768 11.8289 4.68154 12.0242C4.48627 12.2195 4.16969 12.2195 3.97443 12.0242L2.85981 10.9096Z" fill="#06C44F"/>
</g>
<defs>
<clipPath id="clip0_0_3468">
<rect width="16" height="16" fill="white"/>
</clipPath>
</defs>
</svg>
