<svg width="16" height="16" viewBox="0 0 16 16" fill="none" xmlns="http://www.w3.org/2000/svg">
<path d="M2 7.99976C2 8.78769 2.15519 9.5679 2.45672 10.2959C2.75825 11.0238 3.20021 11.6852 3.75736 12.2424C4.31451 12.7995 4.97595 13.2415 5.7039 13.543C6.43185 13.8446 7.21207 13.9998 8 13.9998C8.78793 13.9998 9.56815 13.8446 10.2961 13.543C11.0241 13.2415 11.6855 12.7995 12.2426 12.2424C12.7998 11.6852 13.2417 11.0238 13.5433 10.2959C13.8448 9.5679 14 8.78769 14 7.99976C14 6.40846 13.3679 4.88233 12.2426 3.75712C11.1174 2.6319 9.5913 1.99976 8 1.99976C6.4087 1.99976 4.88258 2.6319 3.75736 3.75712C2.63214 4.88233 2 6.40846 2 7.99976Z" stroke="#06C44F" stroke-width="1.18537" stroke-linecap="round" stroke-linejoin="round"/>
<path d="M8 4.66675V8.00008L10 10.0001" stroke="#06C44F" stroke-width="1.18537" stroke-linecap="round" stroke-linejoin="round"/>
</svg>
