<svg width="28" height="28" viewBox="0 0 28 28" fill="none" xmlns="http://www.w3.org/2000/svg">
<rect width="28" height="28" rx="3" fill="#EFEFEF"/>
<path d="M6.5 14C6.5 14.9849 6.69399 15.9602 7.0709 16.8701C7.44781 17.7801 8.00026 18.6069 8.6967 19.3033C9.39314 19.9997 10.2199 20.5522 11.1299 20.9291C12.0398 21.306 13.0151 21.5 14 21.5C14.9849 21.5 15.9602 21.306 16.8701 20.9291C17.7801 20.5522 18.6069 19.9997 19.3033 19.3033C19.9997 18.6069 20.5522 17.7801 20.9291 16.8701C21.306 15.9602 21.5 14.9849 21.5 14C21.5 13.0151 21.306 12.0398 20.9291 11.1299C20.5522 10.2199 19.9997 9.39314 19.3033 8.6967C18.6069 8.00026 17.7801 7.44781 16.8701 7.0709C15.9602 6.69399 14.9849 6.5 14 6.5C13.0151 6.5 12.0398 6.69399 11.1299 7.0709C10.2199 7.44781 9.39314 8.00026 8.6967 8.6967C8.00026 9.39314 7.44781 10.2199 7.0709 11.1299C6.69399 12.0398 6.5 13.0151 6.5 14Z" stroke="#212121" stroke-width="1.2" stroke-linecap="round" stroke-linejoin="round"/>
<path d="M11.5 12.3335C11.5 12.9965 11.7634 13.6324 12.2322 14.1013C12.7011 14.5701 13.337 14.8335 14 14.8335C14.663 14.8335 15.2989 14.5701 15.7678 14.1013C16.2366 13.6324 16.5 12.9965 16.5 12.3335C16.5 11.6705 16.2366 11.0346 15.7678 10.5657C15.2989 10.0969 14.663 9.8335 14 9.8335C13.337 9.8335 12.7011 10.0969 12.2322 10.5657C11.7634 11.0346 11.5 11.6705 11.5 12.3335Z" stroke="#212121" stroke-width="1.2" stroke-linecap="round" stroke-linejoin="round"/>
<path d="M9.14062 19.7074C9.34688 19.0209 9.76893 18.4192 10.3442 17.9916C10.9194 17.5639 11.6172 17.333 12.334 17.3333H15.6673C16.385 17.333 17.0836 17.5644 17.6593 17.9931C18.2349 18.4217 18.6568 19.0247 18.8623 19.7124" stroke="#212121" stroke-width="1.2" stroke-linecap="round" stroke-linejoin="round"/>
</svg>
