<svg width="12" height="12" viewBox="0 0 12 12" fill="none" xmlns="http://www.w3.org/2000/svg">
<path d="M7.75 5C7.3358 5 7 4.66421 7 4.25M4.25 5C4.66421 5 5 4.66421 5 4.25" stroke="#06C44F" stroke-linecap="round" stroke-linejoin="round"/>
<path d="M7 1V1.32149C7 1.6149 7 1.7616 7.0327 1.88628C7.1115 2.18696 7.32565 2.43389 7.6122 2.55444C7.731 2.60443 7.8762 2.62518 8.16665 2.66667C8.7476 2.74966 9.03805 2.79115 9.27565 2.89112C9.84865 3.13222 10.277 3.62608 10.4347 4.22745C10.5 4.4768 10.5 4.77021 10.5 5.357V11" stroke="#06C44F" stroke-linecap="round" stroke-linejoin="round"/>
<path d="M5 1V1.32149C5 1.6149 5 1.7616 4.96732 1.88628C4.8885 2.18696 4.67433 2.43389 4.38782 2.55444C4.26902 2.60443 4.12379 2.62518 3.83333 2.66667C3.25242 2.74966 2.96196 2.79115 2.72435 2.89112C2.15133 3.13222 1.723 3.62608 1.56536 4.22745C1.5 4.4768 1.5 4.77021 1.5 5.357V11" stroke="#06C44F" stroke-linecap="round" stroke-linejoin="round"/>
<path d="M6 6.5V11" stroke="#06C44F" stroke-linecap="round" stroke-linejoin="round"/>
<path d="M9 5.75C9 5.75 8.72745 7.1818 8.7515 8.61365C8.7675 9.56355 9 11 9 11" stroke="#06C44F" stroke-linecap="round" stroke-linejoin="round"/>
<path d="M3 5.75C3 5.75 3.27257 7.1818 3.2485 8.61365C3.23253 9.56355 3 11 3 11" stroke="#06C44F" stroke-linecap="round" stroke-linejoin="round"/>
</svg>
