<svg width="24" height="24" viewBox="0 0 24 24" fill="none" xmlns="http://www.w3.org/2000/svg">
<path d="M16.4997 13.125C16.4997 13.3476 16.4337 13.5651 16.3101 13.7501C16.1865 13.9351 16.0108 14.0793 15.8052 14.1644C15.5996 14.2496 15.3734 14.2718 15.1552 14.2284C14.937 14.185 14.7365 14.0779 14.5792 13.9205C14.4218 13.7632 14.3147 13.5628 14.2713 13.3445C14.2279 13.1263 14.2502 12.9001 14.3353 12.6945C14.4205 12.489 14.5647 12.3133 14.7497 12.1896C14.9347 12.066 15.1522 12 15.3747 12C15.673 12 15.9592 12.1186 16.1702 12.3296C16.3811 12.5405 16.4997 12.8267 16.4997 13.125ZM11.9997 8.62505C11.9997 8.40254 11.9337 8.18504 11.8101 8.00003C11.6865 7.81503 11.5108 7.67083 11.3052 7.58568C11.0996 7.50053 10.8734 7.47826 10.6552 7.52166C10.437 7.56507 10.2365 7.67222 10.0792 7.82955C9.92184 7.98689 9.8147 8.18734 9.77129 8.40557C9.72788 8.6238 9.75016 8.85 9.83531 9.05557C9.92046 9.26113 10.0647 9.43683 10.2497 9.56045C10.4347 9.68407 10.6522 9.75005 10.8747 9.75005C11.173 9.75005 11.4592 9.63152 11.6702 9.42054C11.8811 9.20956 11.9997 8.92342 11.9997 8.62505ZM18.8434 5.06255C17.036 3.30534 14.6183 2.31644 12.0975 2.30335C9.57673 2.29027 7.14885 3.25401 5.3233 4.99235C3.49775 6.7307 2.41642 9.10854 2.30621 11.6269C2.19599 14.1453 3.06546 16.6086 4.73217 18.4997C4.79735 18.5749 4.87682 18.6364 4.96598 18.6805C5.05514 18.7247 5.15219 18.7507 5.25149 18.757C5.35078 18.7632 5.45034 18.7497 5.54435 18.7172C5.63837 18.6846 5.72496 18.6336 5.7991 18.5673C5.87323 18.5009 5.93342 18.4205 5.97616 18.3306C6.01889 18.2408 6.04333 18.1433 6.04804 18.0439C6.05274 17.9446 6.03763 17.8452 6.00357 17.7517C5.96952 17.6583 5.9172 17.5725 5.84967 17.4994C4.78804 16.3123 4.09269 14.8433 3.84754 13.2698C3.60239 11.6962 3.81792 10.0853 4.46812 8.63152C5.11833 7.17774 6.17541 5.94323 7.51177 5.07699C8.84813 4.21075 10.4066 3.74981 11.9992 3.74981C13.5918 3.74981 15.1503 4.21075 16.4866 5.07699C17.823 5.94323 18.8801 7.17774 19.5303 8.63152C20.1805 10.0853 20.396 11.6962 20.1509 13.2698C19.9057 14.8433 19.2104 16.3123 18.1487 17.4994C18.0161 17.6477 17.9478 17.8427 17.9589 18.0413C17.9699 18.24 18.0595 18.4261 18.2078 18.5588C18.3561 18.6914 18.551 18.7597 18.7497 18.7487C18.9484 18.7376 19.1345 18.648 19.2672 18.4997C20.9345 16.6335 21.8204 14.1977 21.7415 11.6964C21.6626 9.19515 20.625 6.81997 18.8434 5.06255ZM14.2497 15.75H12.7497C10.7115 15.75 8.24967 14.0775 8.24967 12C8.24988 11.7902 8.26712 11.5808 8.30124 11.3738C8.31849 11.2762 8.31624 11.1762 8.29462 11.0795C8.273 10.9828 8.23244 10.8914 8.17528 10.8105C8.11811 10.7295 8.04548 10.6608 7.96158 10.6081C7.87768 10.5554 7.78417 10.5198 7.68645 10.5035C7.58873 10.4871 7.48874 10.4903 7.39226 10.5128C7.29577 10.5353 7.20471 10.5767 7.12432 10.6346C7.04393 10.6926 6.97581 10.7658 6.92389 10.8502C6.87198 10.9346 6.8373 11.0284 6.82186 11.1263C6.77386 11.4151 6.74972 11.7073 6.74967 12C6.74967 13.395 7.44905 14.731 8.71842 15.7641C9.88092 16.7082 11.35 17.25 12.7497 17.25H14.2497C14.4486 17.25 14.6394 17.3291 14.78 17.4697C14.9207 17.6104 14.9997 17.8011 14.9997 18C14.9997 18.199 14.9207 18.3897 14.78 18.5304C14.6394 18.671 14.4486 18.75 14.2497 18.75H8.99967C8.40294 18.75 7.83064 18.9871 7.40868 19.4091C6.98673 19.831 6.74967 20.4033 6.74967 21C6.74967 21.5968 6.98673 22.1691 7.40868 22.591C7.83064 23.013 8.40294 23.25 8.99967 23.25C9.19859 23.25 9.38935 23.171 9.53 23.0304C9.67065 22.8897 9.74967 22.699 9.74967 22.5C9.74967 22.3011 9.67065 22.1104 9.53 21.9697C9.38935 21.8291 9.19859 21.75 8.99967 21.75C8.80076 21.75 8.60999 21.671 8.46934 21.5304C8.32869 21.3897 8.24967 21.199 8.24967 21C8.24967 20.8011 8.32869 20.6104 8.46934 20.4697C8.60999 20.3291 8.80076 20.25 8.99967 20.25H14.2497C14.8464 20.25 15.4187 20.013 15.8407 19.591C16.2626 19.1691 16.4997 18.5968 16.4997 18C16.4997 17.4033 16.2626 16.831 15.8407 16.4091C15.4187 15.9871 14.8464 15.75 14.2497 15.75Z" fill="#727775"/>
</svg>
