<svg width="24" height="24" viewBox="0 0 24 24" fill="none" xmlns="http://www.w3.org/2000/svg">
<path d="M16.3988 14.6249C15.4341 16.2928 13.8309 17.2499 12 17.2499C10.1691 17.2499 8.56594 16.2937 7.60031 14.6249C7.55107 14.5396 7.51911 14.4454 7.50626 14.3478C7.49341 14.2501 7.49993 14.1509 7.52544 14.0557C7.55094 13.9606 7.59494 13.8714 7.65492 13.7932C7.7149 13.7151 7.78968 13.6495 7.875 13.6003C7.96032 13.551 8.0545 13.5191 8.15217 13.5062C8.24984 13.4934 8.34908 13.4999 8.44423 13.5254C8.53938 13.5509 8.62858 13.5949 8.70673 13.6549C8.78487 13.7148 8.85044 13.7896 8.89969 13.875C9.59906 15.0853 10.6997 15.7499 12 15.7499C13.3003 15.7499 14.4009 15.0843 15.1012 13.875C15.1481 13.7853 15.2127 13.7061 15.291 13.6421C15.3693 13.578 15.4597 13.5305 15.5568 13.5023C15.654 13.4741 15.7558 13.4659 15.8562 13.4781C15.9567 13.4903 16.0536 13.5226 16.1411 13.5733C16.2287 13.6239 16.3052 13.6917 16.3658 13.7726C16.4265 13.8535 16.4702 13.9459 16.4943 14.0442C16.5183 14.1424 16.5223 14.2445 16.5059 14.3443C16.4895 14.4441 16.453 14.5396 16.3988 14.6249ZM21.75 12C21.7505 12.9709 21.6064 13.9365 21.3225 14.8649C21.2863 14.9822 21.2219 15.0887 21.135 15.1753L15.1753 21.1349C15.0893 21.2221 14.983 21.2865 14.8659 21.3224C12.9043 21.9257 10.8024 21.8946 8.85948 21.2335C6.91658 20.5725 5.23181 19.3152 4.04515 17.6408C2.85849 15.9664 2.23044 13.9602 2.25046 11.908C2.27049 9.85586 2.93756 7.86233 4.15668 6.21139C5.37579 4.56045 7.08477 3.33629 9.0402 2.71328C10.9956 2.09027 13.0978 2.10018 15.0472 2.7416C16.9967 3.38301 18.6941 4.62322 19.8976 6.28558C21.1011 7.94794 21.7493 9.94767 21.75 12ZM20.25 12C20.2479 10.274 19.7038 8.59233 18.6946 7.1922C17.6854 5.79207 16.262 4.7442 14.6253 4.19645C12.9886 3.6487 11.2212 3.62874 9.57253 4.13937C7.92386 4.65001 6.47716 5.66546 5.43659 7.04243C4.39601 8.4194 3.8141 10.0884 3.77297 11.8138C3.73184 13.5393 4.23356 15.2341 5.20734 16.659C6.18112 18.084 7.57779 19.1673 9.20025 19.7559C10.8227 20.3445 12.589 20.4088 14.25 19.9396L19.9397 14.25C20.1463 13.5178 20.2507 12.7607 20.25 12ZM8.625 11.25C8.8475 11.25 9.06501 11.184 9.25002 11.0604C9.43502 10.9367 9.57922 10.761 9.66436 10.5555C9.74951 10.3499 9.77179 10.1237 9.72838 9.90547C9.68498 9.68724 9.57783 9.48679 9.4205 9.32945C9.26316 9.17212 9.06271 9.06497 8.84448 9.02157C8.62625 8.97816 8.40005 9.00044 8.19448 9.08559C7.98891 9.17073 7.81321 9.31493 7.6896 9.49993C7.56598 9.68494 7.5 9.90245 7.5 10.125C7.5 10.4233 7.61853 10.7095 7.8295 10.9204C8.04048 11.1314 8.32663 11.25 8.625 11.25ZM15.375 8.99995C15.1525 8.99995 14.935 9.06593 14.75 9.18955C14.565 9.31316 14.4208 9.48886 14.3356 9.69443C14.2505 9.9 14.2282 10.1262 14.2716 10.3444C14.315 10.5627 14.4222 10.7631 14.5795 10.9204C14.7368 11.0778 14.9373 11.1849 15.1555 11.2283C15.3738 11.2717 15.6 11.2495 15.8055 11.1643C16.0111 11.0792 16.1868 10.935 16.3104 10.75C16.434 10.565 16.5 10.3475 16.5 10.125C16.5 9.82658 16.3815 9.54043 16.1705 9.32945C15.9595 9.11848 15.6734 8.99995 15.375 8.99995Z" fill="#727775"/>
</svg>
