<svg width="28" height="28" viewBox="0 0 28 28" fill="none" xmlns="http://www.w3.org/2000/svg">
<rect width="28" height="28" rx="3" fill="#EFEFEF"/>
<path d="M22.3327 13.639C22.3327 18.0417 18.6012 21.6112 13.9993 21.6112C13.4583 21.612 12.9187 21.5619 12.3872 21.4622C12.0046 21.3902 11.8113 21.3543 11.6798 21.3747C11.5462 21.3952 11.357 21.4957 10.9785 21.6971C9.9078 22.2665 8.65931 22.4676 7.45861 22.2442C7.91497 21.6829 8.22664 21.0094 8.36417 20.2874C8.4475 19.8457 8.24102 19.4167 7.93176 19.1027C6.52712 17.6763 5.66602 15.7543 5.66602 13.639C5.66602 9.23639 9.3975 5.66675 13.9993 5.66675C18.6012 5.66675 22.3327 9.23639 22.3327 13.639Z" stroke="#212121" stroke-width="1.25" stroke-linejoin="round"/>
<path d="M12.334 12.2052C12.334 11.3555 13.0802 10.6667 14.0007 10.6667C14.9212 10.6667 15.6673 11.3555 15.6673 12.2052C15.6673 12.5115 15.5704 12.7968 15.4032 13.0366C14.9052 13.7511 14.0007 14.4325 14.0007 15.2822V15.6667" stroke="#212121" stroke-width="1.25" stroke-linecap="round"/>
<path d="M14 17.75H14.0075" stroke="#212121" stroke-width="1.25" stroke-linecap="round" stroke-linejoin="round"/>
</svg>
