<svg width="28" height="28" viewBox="0 0 28 28" fill="none" xmlns="http://www.w3.org/2000/svg">
<rect width="28" height="28" rx="3" fill="#EFEFEF"/>
<path d="M18.3757 9.83325C18.3757 9.48808 18.0958 9.20825 17.7507 9.20825C17.4055 9.20825 17.1257 9.48808 17.1257 9.83325V10.8749H16.084C15.7388 10.8749 15.459 11.1548 15.459 11.4999C15.459 11.8451 15.7388 12.1249 16.084 12.1249H17.1257V13.1666C17.1257 13.5118 17.4055 13.7916 17.7507 13.7916C18.0958 13.7916 18.3757 13.5118 18.3757 13.1666V12.1249H19.4173C19.7625 12.1249 20.0423 11.8451 20.0423 11.4999C20.0423 11.1548 19.7625 10.8749 19.4173 10.8749H18.3757V9.83325Z" fill="#212121"/>
<path fill-rule="evenodd" clip-rule="evenodd" d="M22.9577 11.7647C22.9577 8.99353 21.7223 6.92486 19.8001 6.17218C18.0203 5.47529 15.8842 5.99669 13.9993 7.76112C12.1145 5.99669 9.97834 5.47529 8.1986 6.17219C6.27637 6.92487 5.04102 8.99355 5.04102 11.7647C5.04102 13.5296 5.98302 15.2664 7.15542 16.7618C8.33987 18.2724 9.82994 19.6251 11.0736 20.6344L11.1854 20.7251C12.1859 21.5382 12.9082 22.1251 13.9993 22.1251C15.0905 22.1251 15.8128 21.5382 16.8133 20.7251L16.9251 20.6344C18.1688 19.6251 19.6588 18.2724 20.8433 16.7618C22.0157 15.2665 22.9577 13.5296 22.9577 11.7647ZM14.4558 9.07209C16.2157 7.18996 18.0403 6.82549 19.3443 7.33613C20.6513 7.84789 21.7077 9.3442 21.7077 11.7647C21.7077 13.1075 20.9749 14.568 19.8596 15.9905C18.7563 17.3976 17.3457 18.6833 16.1374 19.6637C14.9769 20.6054 14.6018 20.8751 13.9993 20.8751C13.3969 20.8751 13.0218 20.6054 11.8613 19.6637C10.6531 18.6832 9.2424 17.3976 8.13911 15.9904C7.02377 14.5679 6.29102 13.1075 6.29102 11.7647C6.29102 9.34421 7.3474 7.84789 8.65437 7.33613C9.95845 6.82549 11.783 7.18996 13.5428 9.07209C13.661 9.19849 13.8263 9.27024 13.9993 9.27024C14.1724 9.27024 14.3377 9.19849 14.4558 9.07209Z" fill="#212121"/>
</svg>
