<svg width="20" height="20" viewBox="0 0 20 20" fill="none" xmlns="http://www.w3.org/2000/svg">
<g clip-path="url(#clip0_0_4081)">
<path d="M13.4349 6.66699C13.4349 6.39085 13.211 6.16699 12.9349 6.16699C12.6588 6.16699 12.4349 6.39085 12.4349 6.66699V7.50034H11.6016C11.3254 7.50034 11.1016 7.7242 11.1016 8.00034C11.1016 8.27649 11.3254 8.50034 11.6016 8.50034H12.4349V9.33363C12.4349 9.60983 12.6588 9.83363 12.9349 9.83363C13.211 9.83363 13.4349 9.60983 13.4349 9.33363V8.50034H14.2682C14.5444 8.50034 14.7682 8.27649 14.7682 8.00034C14.7682 7.7242 14.5444 7.50034 14.2682 7.50034H13.4349V6.66699Z" fill="#100F0F"/>
<path fill-rule="evenodd" clip-rule="evenodd" d="M17.099 8.21273C17.099 5.9958 16.1107 4.34086 14.5729 3.73872C13.1491 3.18121 11.4402 3.59833 9.93229 5.00987C8.42439 3.59833 6.71548 3.18121 5.29169 3.73872C3.75391 4.34087 2.76562 5.99582 2.76562 8.21276C2.76562 9.62466 3.51923 11.0141 4.45715 12.2104C5.40471 13.4189 6.59676 14.5011 7.59172 15.3085L7.68114 15.3811C8.48153 16.0315 9.05936 16.5011 9.93229 16.5011C10.8052 16.5011 11.3831 16.0315 12.1834 15.3811L12.2729 15.3085C13.2678 14.5011 14.4599 13.4189 15.4074 12.2104C16.3454 11.0142 17.099 9.62466 17.099 8.21273ZM10.2975 6.05865C11.7054 4.55294 13.165 4.26137 14.2083 4.66988C15.2538 5.07928 16.099 6.27634 16.099 8.21273C16.099 9.28699 15.5128 10.4554 14.6205 11.5934C13.7379 12.7191 12.6094 13.7476 11.6428 14.5319C10.7144 15.2853 10.4142 15.5011 9.93229 15.5011C9.45036 15.5011 9.15023 15.2853 8.22184 14.5319C7.25526 13.7475 6.12673 12.7191 5.2441 11.5933C4.35183 10.4553 3.76562 9.28699 3.76562 8.21276C3.76562 6.27634 4.61073 5.07929 5.6563 4.66988C6.69957 4.26137 8.15922 4.55294 9.56709 6.05865C9.66162 6.15977 9.79382 6.21717 9.93229 6.21717C10.0708 6.21717 10.203 6.15977 10.2975 6.05865Z" fill="#100F0F"/>
</g>
<defs>
<clipPath id="clip0_0_4081">
<rect width="16" height="16" fill="white" transform="translate(1.93359 2)"/>
</clipPath>
</defs>
</svg>
