<svg width="105" height="54" viewBox="0 0 105 54" fill="none" xmlns="http://www.w3.org/2000/svg">
<path d="M37.7011 53.5623C37.3526 53.5623 37.0928 53.3025 37.0484 53.0003L32.3147 5.98069L26.8416 43.4663C26.7993 43.7684 26.5374 44.0283 26.2332 44.0283C25.9311 44.0283 25.6269 43.8127 25.5826 43.5086L22.8028 31.245L19.1104 35.9264C18.9372 36.142 18.6773 36.2286 18.4154 36.142C18.1556 36.0554 17.9824 35.8821 17.938 35.6223L16.5924 26.3058L14.8117 33.8456C14.7674 34.1054 14.5499 34.2787 14.29 34.323C14.0301 34.3653 13.7683 34.2787 13.6394 34.0611L11.7277 31.3316L10.5976 33.7146C10.511 33.9322 10.2512 34.1054 9.99131 34.1054H0.652659C0.304171 34.1054 0 33.8013 0 33.4548C0 33.1083 0.304171 32.8062 0.652659 32.8062H9.55621L10.9884 29.7725C11.0771 29.555 11.2926 29.426 11.5102 29.3817C11.7277 29.3817 11.9876 29.4683 12.1185 29.6416L13.8569 32.1112L16.115 22.6215C16.2016 22.3193 16.4615 22.1018 16.7657 22.1018C17.0698 22.1018 17.3297 22.3616 17.374 22.6658L18.9815 33.8879L22.5852 29.3394C22.7605 29.1219 22.976 29.0352 23.2379 29.1219C23.4977 29.1662 23.671 29.3817 23.7153 29.5993L26.0177 39.7397L31.7506 0.564026C31.7929 0.259855 32.0548 0 32.4013 0C32.7498 0 33.0096 0.259855 33.0539 0.564026L37.7877 47.4084L40.8274 25.2643C40.8274 24.9622 41.1316 24.7023 41.4358 24.7023C41.7399 24.7023 42.0441 24.9179 42.0864 25.222L43.8671 33.4125L46.2562 28.3846C46.3428 28.1691 46.6047 27.9958 46.8645 27.9958C47.1244 27.9958 47.3419 28.1247 47.4728 28.3846L49.5134 32.7618H61.8051L63.9766 28.3423C64.0633 28.1247 64.3251 27.9958 64.5427 27.9958C64.8025 27.9958 65.0201 28.1247 65.149 28.3423L67.5381 32.7618H166.347C166.696 32.7618 167 33.066 167 33.4125C167 33.759 166.696 34.0611 166.347 34.0611H67.1473C66.8874 34.0611 66.6699 33.9322 66.5833 33.7146L64.6293 30.0747L62.8486 33.7146C62.7177 33.9322 62.5001 34.0611 62.2826 34.0611H49.1669C48.9051 34.0611 48.6895 33.9322 48.5586 33.6723L46.9511 30.1613L44.3465 35.6223C44.2156 35.8821 43.9537 36.0131 43.6939 35.9687C43.434 35.9687 43.1721 35.7512 43.1298 35.449L41.6956 28.9909L38.3961 52.9137C38.3517 53.2158 38.0919 53.4757 37.7434 53.4757L37.7011 53.5623Z" fill="black"/>
</svg>
