<svg width="28" height="28" viewBox="0 0 28 28" fill="none" xmlns="http://www.w3.org/2000/svg">
<path d="M19.8957 24.0173C18.7525 25.1255 17.5043 24.9505 16.3028 24.4256C15.0313 23.889 13.8648 23.8657 12.5233 24.4256C10.8435 25.1488 9.95695 24.9389 8.95374 24.0173C3.26113 18.1497 4.10102 9.21419 10.5635 8.88756C12.1383 8.96922 13.2349 9.75079 14.1564 9.82078C15.5329 9.54081 16.8511 8.73591 18.3209 8.8409C20.0823 8.98088 21.4122 9.68079 22.2871 10.9406C18.6475 13.122 19.5107 17.9164 22.847 19.2579C22.1821 21.0077 21.3188 22.7458 19.884 24.029L19.8957 24.0173ZM14.0398 8.81757C13.8648 6.21623 15.9762 4.06984 18.4026 3.85986C18.7408 6.86948 15.6729 9.1092 14.0398 8.81757Z" fill="#0D0D0D"/>
</svg>
