<svg width="18" height="18" viewBox="0 0 18 18" fill="none" xmlns="http://www.w3.org/2000/svg">
<path fill-rule="evenodd" clip-rule="evenodd" d="M9.00014 1.05225C4.61091 1.05225 1.05273 4.61042 1.05273 8.99965C1.05273 10.9784 1.77587 12.7882 2.9723 14.1792L1.97603 15.1755C1.74172 15.4098 1.74172 15.7898 1.97603 16.024C2.21036 16.2584 2.59025 16.2584 2.82457 16.024L3.82084 15.0278C5.21187 16.224 7.02157 16.947 9.00014 16.947C13.3893 16.947 16.9476 13.3888 16.9476 8.99965C16.9476 7.02107 16.2246 5.21138 15.0283 3.82035L16.0245 2.82404C16.2589 2.58972 16.2589 2.20982 16.0245 1.97551C15.7903 1.7412 15.4104 1.7412 15.176 1.97551L14.1798 2.97181C12.7887 1.77538 10.9788 1.05225 9.00014 1.05225ZM13.371 3.78058C12.1884 2.78918 10.664 2.19224 9.00014 2.19224C5.24051 2.19224 2.19273 5.24002 2.19273 8.99965C2.19273 10.6635 2.78967 12.188 3.78107 13.3704L13.371 3.78058ZM4.62963 14.219C5.81212 15.2102 7.33643 15.807 9.00014 15.807C12.7597 15.807 15.8076 12.7593 15.8076 8.99965C15.8076 7.33594 15.2107 5.81163 14.2195 4.62914L4.62963 14.219Z" fill="black"/>
</svg>
