<svg width="28" height="28" viewBox="0 0 28 28" fill="none" xmlns="http://www.w3.org/2000/svg">
<rect width="28" height="28" rx="3" fill="#EFEFEF" fill-opacity="0.96"/>
<path d="M5.66602 14C5.66602 14.8766 5.8164 15.718 6.09278 16.5M6.09278 16.5H13.166M6.09278 16.5C7.12237 19.413 9.90047 21.5 13.166 21.5C11.8792 21.5 10.8194 18.5833 10.6813 14.8334M14.8441 11.5H21.9173M21.9173 11.5C20.8877 8.58702 18.1096 6.5 14.8441 6.5C16.1782 6.5 17.2682 9.635 17.3403 13.5834M21.9173 11.5C22.1496 12.1572 22.2928 12.8565 22.3327 13.5834" stroke="#212121" stroke-width="1.25" stroke-linecap="round" stroke-linejoin="round"/>
<path d="M5.66602 8.41453C5.66602 7.49922 5.66602 7.04157 5.82217 6.68666C5.98777 6.31027 6.27319 6.00776 6.62832 5.83225C6.96319 5.66675 7.395 5.66675 8.25861 5.66675H8.99935C10.5707 5.66675 11.3564 5.66675 11.8445 6.18412C12.3327 6.7015 12.3327 7.53421 12.3327 9.19961V11.0822C12.3327 11.8086 12.3327 12.1719 12.1126 12.2967C11.8926 12.4215 11.6074 12.22 11.0371 11.817L10.9502 11.7557C10.5334 11.4612 10.325 11.3139 10.0888 11.2381C9.85262 11.1623 9.60215 11.1623 9.10121 11.1623H8.25861C7.395 11.1623 6.96319 11.1623 6.62832 10.9968C6.27319 10.8213 5.98777 10.5188 5.82217 10.1424C5.66602 9.78749 5.66602 9.32984 5.66602 8.41453Z" stroke="#212121" stroke-width="1.25"/>
<path d="M22.3327 18.4145C22.3327 17.4992 22.3327 17.0416 22.1765 16.6867C22.0109 16.3102 21.7255 16.0077 21.3703 15.8322C21.0355 15.6667 20.6037 15.6667 19.7401 15.6667H18.9993C17.428 15.6667 16.6423 15.6667 16.1542 16.1842C15.666 16.7015 15.666 17.5342 15.666 19.1996V21.0822C15.666 21.8087 15.666 22.1718 15.8861 22.2967C16.1061 22.4215 16.3913 22.22 16.9616 21.8171L17.0485 21.7557C17.4653 21.4612 17.6737 21.3139 17.9098 21.2381C18.1461 21.1623 18.3965 21.1623 18.8975 21.1623H19.7401C20.6037 21.1623 21.0355 21.1623 21.3703 20.9968C21.7255 20.8213 22.0109 20.5188 22.1765 20.1424C22.3327 19.7875 22.3327 19.3298 22.3327 18.4145Z" stroke="#212121" stroke-width="1.25"/>
</svg>
