<svg width="28" height="28" viewBox="0 0 28 28" fill="none" xmlns="http://www.w3.org/2000/svg">
<rect width="28" height="28" rx="3" fill="url(#paint0_linear_0_2159)"/>
<path d="M15.6667 17.3332V18.9998C15.6667 19.4419 15.4911 19.8658 15.1785 20.1783C14.866 20.4909 14.442 20.6665 14 20.6665H8.16667C7.72464 20.6665 7.30072 20.4909 6.98816 20.1783C6.67559 19.8658 6.5 19.4419 6.5 18.9998V8.99984C6.5 8.55781 6.67559 8.13389 6.98816 7.82133C7.30072 7.50877 7.72464 7.33317 8.16667 7.33317H14C14.442 7.33317 14.866 7.50877 15.1785 7.82133C15.4911 8.13389 15.6667 8.55781 15.6667 8.99984V10.6665" stroke="white" stroke-width="1.66667" stroke-linecap="round" stroke-linejoin="round"/>
<path d="M11.5 14H21.5L19 16.5" stroke="white" stroke-width="1.66667" stroke-linecap="round" stroke-linejoin="round"/>
<path d="M19 11.5L21.5 14" stroke="white" stroke-width="1.66667" stroke-linecap="round" stroke-linejoin="round"/>
<defs>
<linearGradient id="paint0_linear_0_2159" x1="-2.91667" y1="8.97485e-07" x2="46.6667" y2="42" gradientUnits="userSpaceOnUse">
<stop stop-color="#E61317"/>
<stop offset="1" stop-color="#FB989A"/>
</linearGradient>
</defs>
</svg>
