<svg width="24" height="24" viewBox="0 0 24 24" fill="none" xmlns="http://www.w3.org/2000/svg">
<path d="M11.03 2.58942C11.3011 2.35986 11.6448 2.23389 12 2.23389C12.3552 2.23389 12.6989 2.35986 12.97 2.58942L20.47 8.95242C20.6361 9.09321 20.7695 9.26847 20.861 9.46603C20.9526 9.66358 21 9.87869 21 10.0964V19.4994C21 19.8972 20.842 20.2788 20.5607 20.5601C20.2794 20.8414 19.8978 20.9994 19.5 20.9994H13.75C13.5511 20.9994 13.3603 20.9204 13.2197 20.7797C13.079 20.6391 13 20.4483 13 20.2494V13.9994H11V20.2494C11 20.4483 10.921 20.6391 10.7803 20.7797C10.6397 20.9204 10.4489 20.9994 10.25 20.9994H4.5C4.10218 20.9994 3.72064 20.8414 3.43934 20.5601C3.15804 20.2788 3 19.8972 3 19.4994V10.0964C3 9.65642 3.194 9.23742 3.53 8.95242L11.03 2.58942ZM12 3.73342L4.5 10.0964V19.4994H9.5V13.2494C9.5 13.0505 9.57902 12.8597 9.71967 12.7191C9.86032 12.5784 10.0511 12.4994 10.25 12.4994H13.75C13.9489 12.4994 14.1397 12.5784 14.2803 12.7191C14.421 12.8597 14.5 13.0505 14.5 13.2494V19.4994H19.5V10.0964L12 3.73342Z" fill="black"/>
</svg>
