<svg width="32" height="32" viewBox="0 0 32 32" fill="none" xmlns="http://www.w3.org/2000/svg">
<rect width="32" height="31.7647" rx="2.54118" fill="#EFEFEF" fill-opacity="0.33"/>
<path fill-rule="evenodd" clip-rule="evenodd" d="M9.78339 7.46687C10.133 7.16717 10.6594 7.20767 10.9591 7.55731L17.6297 15.3396C17.8973 15.6519 17.8973 16.1126 17.6297 16.4249L10.9591 24.2073C10.6594 24.5569 10.133 24.5974 9.78339 24.2978C9.43374 23.9981 9.39324 23.4716 9.69294 23.122L15.8984 15.8823L9.69294 8.6426C9.39324 8.29295 9.43374 7.76656 9.78339 7.46687ZM14.2306 7.46699C14.5803 7.16729 15.1067 7.20778 15.4064 7.55742L22.077 15.3397C22.3446 15.652 22.3446 16.1128 22.077 16.4251L15.4064 24.2074C15.1067 24.5571 14.5803 24.5975 14.2306 24.2979C13.881 23.9982 13.8405 23.4718 14.1402 23.1221L20.3457 15.8824L14.1402 8.64271C13.8405 8.29307 13.881 7.76667 14.2306 7.46699Z" fill="#616060"/>
</svg>
