<svg width="20" height="20" viewBox="0 0 20 20" fill="none" xmlns="http://www.w3.org/2000/svg">
<g clip-path="url(#clip0_0_1759)">
<path fill-rule="evenodd" clip-rule="evenodd" d="M4.16592 7.50008C4.16592 5.95299 4.7805 4.46925 5.87446 3.37529C6.96842 2.28133 8.45215 1.66675 9.99925 1.66675C11.5463 1.66675 13.0301 2.28133 14.124 3.37529C15.218 4.46925 15.8326 5.95299 15.8326 7.50008V10.6367L17.3509 13.6734C17.4208 13.8132 17.4538 13.9685 17.4468 14.1246C17.4398 14.2807 17.393 14.4324 17.3108 14.5654C17.2286 14.6983 17.1139 14.808 16.9774 14.8841C16.8409 14.9602 16.6872 15.0001 16.5309 15.0001H13.2276C13.0422 15.7153 12.6246 16.3487 12.0403 16.8009C11.456 17.253 10.7381 17.4984 9.99925 17.4984C9.26042 17.4984 8.5425 17.253 7.9582 16.8009C7.37389 16.3487 6.95628 15.7153 6.77092 15.0001H3.46758C3.31132 15.0001 3.15763 14.9602 3.02114 14.8841C2.88464 14.808 2.76987 14.6983 2.6877 14.5654C2.60554 14.4324 2.55873 14.2807 2.55171 14.1246C2.54469 13.9685 2.57769 13.8132 2.64758 13.6734L4.16592 10.6367V7.50008ZM8.55592 15.0001C8.7022 15.2534 8.9126 15.4638 9.16595 15.6101C9.41931 15.7563 9.7067 15.8333 9.99925 15.8333C10.2918 15.8333 10.5792 15.7563 10.8325 15.6101C11.0859 15.4638 11.2963 15.2534 11.4426 15.0001H8.55592ZM9.99925 3.33341C8.89418 3.33341 7.83437 3.7724 7.05297 4.5538C6.27157 5.3352 5.83258 6.39501 5.83258 7.50008V10.6367C5.83257 10.8954 5.77237 11.1504 5.65675 11.3817L4.68175 13.3334H15.3176L14.3426 11.3817C14.2267 11.1505 14.1662 10.8954 14.1659 10.6367V7.50008C14.1659 6.39501 13.7269 5.3352 12.9455 4.5538C12.1641 3.7724 11.1043 3.33341 9.99925 3.33341Z" fill="#100F0F"/>
</g>
<defs>
<clipPath id="clip0_0_1759">
<rect width="20" height="20" fill="white"/>
</clipPath>
</defs>
</svg>
