<svg width="26" height="26" viewBox="0 0 26 26" fill="none" xmlns="http://www.w3.org/2000/svg">
<rect width="25.3333" height="25.3333" rx="2.30303" fill="#E92525"/>
<path fill-rule="evenodd" clip-rule="evenodd" d="M8.04256 9.81266C8.32018 9.79415 8.56023 10.0042 8.57875 10.2818L8.8877 14.9161C8.94806 15.8215 8.99106 16.4514 9.08548 16.9254C9.17707 17.3851 9.30492 17.6285 9.48858 17.8003C9.67223 17.9721 9.92356 18.0835 10.3884 18.1443C10.8676 18.207 11.499 18.208 12.4064 18.208H12.9259C13.8333 18.208 14.4647 18.207 14.9439 18.1443C15.4087 18.0835 15.6601 17.9721 15.8437 17.8003C16.0274 17.6285 16.1552 17.3851 16.2468 16.9254C16.3412 16.4514 16.3842 15.8215 16.4446 14.9161L16.7535 10.2818C16.772 10.0042 17.0121 9.79415 17.2897 9.81266C17.5673 9.83116 17.7774 10.0712 17.7589 10.3488L17.4476 15.0184C17.3901 15.8801 17.3438 16.5761 17.235 17.1223C17.1218 17.6901 16.9295 18.1643 16.5321 18.5361C16.1347 18.9079 15.6486 19.0683 15.0746 19.1434C14.5224 19.2156 13.8249 19.2156 12.9613 19.2156H12.371C11.5074 19.2156 10.8099 19.2156 10.2577 19.1434C9.68362 19.0683 9.19761 18.9079 8.80022 18.5361C8.40284 18.1643 8.21044 17.6901 8.09733 17.1223C7.98852 16.5761 7.94214 15.8801 7.88471 15.0184L7.5734 10.3488C7.55489 10.0712 7.76494 9.83116 8.04256 9.81266Z" fill="white"/>
<path fill-rule="evenodd" clip-rule="evenodd" d="M11.5618 6.11721L11.5309 6.1172C11.3855 6.11711 11.2589 6.11703 11.1393 6.13612C10.6669 6.21156 10.2581 6.50621 10.0371 6.93053C9.9812 7.03793 9.94123 7.1581 9.89535 7.29602L9.8856 7.32532L9.82038 7.52097C9.80763 7.55924 9.80407 7.56978 9.80098 7.57833C9.68335 7.90352 9.37837 8.12333 9.03267 8.1321C9.02359 8.13233 9.01245 8.13237 8.97212 8.13237H6.95691C6.67867 8.13237 6.45312 8.35791 6.45312 8.63615C6.45312 8.91439 6.67867 9.13994 6.95691 9.13994H8.97787H8.98912H16.344H16.3552H18.3762C18.6544 9.13994 18.88 8.91439 18.88 8.63615C18.88 8.35791 18.6544 8.13237 18.3762 8.13237H16.361C16.3206 8.13237 16.3096 8.13233 16.3004 8.1321C15.9548 8.12333 15.6498 7.9035 15.5321 7.57832C15.5291 7.56983 15.5255 7.55905 15.5128 7.52097L15.4475 7.32532L15.4378 7.29601C15.3919 7.15809 15.352 7.03793 15.296 6.93053C15.075 6.50621 14.6662 6.21156 14.1938 6.13612C14.0742 6.11703 13.9476 6.11711 13.8022 6.1172L13.7713 6.11721H11.5618ZM10.7485 7.92107C10.7221 7.99399 10.6914 8.0645 10.6568 8.13237H14.6763C14.6417 8.06451 14.6111 7.994 14.5847 7.92108L14.5587 7.84495L14.4917 7.64395C14.4304 7.46022 14.4163 7.42276 14.4024 7.39589C14.3287 7.25445 14.1924 7.15624 14.0349 7.13109C14.005 7.12631 13.965 7.12479 13.7713 7.12479H11.5618C11.3681 7.12479 11.3281 7.12631 11.2982 7.13109C11.1407 7.15624 11.0045 7.25445 10.9308 7.39589C10.9168 7.42276 10.9027 7.46023 10.8415 7.64395L10.7744 7.84495Z" fill="white"/>
</svg>
