<svg width="28" height="28" viewBox="0 0 28 28" fill="none" xmlns="http://www.w3.org/2000/svg">
<rect width="28" height="28" rx="3" fill="#EFEFEF" fill-opacity="0.96"/>
<path d="M8.79864 13.5759C8.73741 14.7392 8.8078 15.9776 7.76844 16.7571C7.2847 17.1199 7 17.6892 7 18.294C7 19.1257 7.6515 19.8334 8.5 19.8334H20.5C21.3485 19.8334 22 19.1257 22 18.294C22 17.6892 21.7153 17.1199 21.2316 16.7571C20.1922 15.9776 20.2626 14.7392 20.2013 13.5759C20.0418 10.5436 17.5365 8.16675 14.5 8.16675C11.4635 8.16675 8.95823 10.5436 8.79864 13.5759Z" stroke="#212121" stroke-width="1.2" stroke-linecap="round" stroke-linejoin="round"/>
<path d="M13 6.60425C13 7.29461 13.5597 8.16675 14.25 8.16675C14.9403 8.16675 15.5 7.29461 15.5 6.60425C15.5 5.91389 14.9403 5.66675 14.25 5.66675C13.5597 5.66675 13 5.91389 13 6.60425Z" stroke="#212121" stroke-width="1.2"/>
<path d="M17 19.8333C17 21.214 15.8807 22.3333 14.5 22.3333C13.1192 22.3333 12 21.214 12 19.8333" stroke="#212121" stroke-width="1.2" stroke-linecap="round" stroke-linejoin="round"/>
</svg>
