<svg width="20" height="20" viewBox="0 0 20 20" fill="none" xmlns="http://www.w3.org/2000/svg">
<path d="M4.79864 9.57592C4.73741 10.7392 4.8078 11.9776 3.76844 12.7571C3.2847 13.1199 3 13.6892 3 14.294C3 15.1257 3.6515 15.8334 4.5 15.8334H16.5C17.3485 15.8334 18 15.1257 18 14.294C18 13.6892 17.7153 13.1199 17.2316 12.7571C16.1922 11.9776 16.2626 10.7392 16.2013 9.57592C16.0418 6.54361 13.5365 4.16675 10.5 4.16675C7.46347 4.16675 4.95823 6.5436 4.79864 9.57592Z" stroke="#212121" stroke-width="1.2" stroke-linecap="round" stroke-linejoin="round"/>
<path d="M9 2.60425C9 3.29461 9.55967 4.16675 10.25 4.16675C10.9403 4.16675 11.5 3.29461 11.5 2.60425C11.5 1.91389 10.9403 1.66675 10.25 1.66675C9.55967 1.66675 9 1.91389 9 2.60425Z" stroke="#212121" stroke-width="1.2"/>
<path d="M13 15.8333C13 17.214 11.8807 18.3333 10.5 18.3333C9.11925 18.3333 8 17.214 8 15.8333" stroke="#212121" stroke-width="1.2" stroke-linecap="round" stroke-linejoin="round"/>
</svg>
