<svg width="45" height="45" viewBox="0 0 45 45" fill="none" xmlns="http://www.w3.org/2000/svg">
<rect width="45" height="45" rx="6" fill="#06C44F"/>
<g clip-path="url(#clip0_0_3653)">
<path d="M16.2 9.90039C16.5858 9.90044 16.9581 10.0421 17.2464 10.2984C17.5347 10.5548 17.7188 10.908 17.764 11.2911L17.775 11.4754V33.5254C17.7746 33.9268 17.6208 34.3129 17.3453 34.6048C17.0697 34.8967 16.693 35.0724 16.2923 35.0959C15.8916 35.1195 15.497 34.9891 15.1891 34.7314C14.8813 34.4738 14.6834 34.1083 14.636 33.7097L14.625 33.5254V11.4754C14.625 11.0577 14.7909 10.6571 15.0863 10.3617C15.3817 10.0663 15.7823 9.90039 16.2 9.90039ZM28.8 9.90039C29.1858 9.90044 29.5581 10.0421 29.8464 10.2984C30.1347 10.5548 30.3188 10.908 30.364 11.2911L30.375 11.4754V33.5254C30.3746 33.9268 30.2208 34.3129 29.9453 34.6048C29.6697 34.8967 29.293 35.0724 28.8923 35.0959C28.4916 35.1195 28.097 34.9891 27.7891 34.7314C27.4813 34.4738 27.2834 34.1083 27.236 33.7097L27.225 33.5254V11.4754C27.225 11.0577 27.3909 10.6571 27.6863 10.3617C27.9817 10.0663 28.3823 9.90039 28.8 9.90039Z" fill="white"/>
</g>
<defs>
<clipPath id="clip0_0_3653">
<rect width="37.8" height="37.8" fill="white" transform="translate(3.60156 3.6001)"/>
</clipPath>
</defs>
</svg>
