<svg width="32" height="32" viewBox="0 0 32 32" fill="none" xmlns="http://www.w3.org/2000/svg">
<path d="M5.13359 11.4936C4.93898 10.617 4.96886 9.70542 5.22047 8.84341C5.47207 7.98141 5.93725 7.19689 6.57288 6.56259C7.20851 5.92829 7.994 5.46475 8.85653 5.21495C9.71906 4.96515 10.6307 4.93718 11.5069 5.13363C11.9892 4.37936 12.6536 3.75864 13.4389 3.32867C14.2241 2.89871 15.105 2.67334 16.0003 2.67334C16.8955 2.67334 17.7764 2.89871 18.5617 3.32867C19.3469 3.75864 20.0113 4.37936 20.4936 5.13363C21.3711 4.93632 22.2844 4.96417 23.1483 5.21458C24.0122 5.46498 24.7987 5.92981 25.4347 6.56583C26.0707 7.20185 26.5356 7.98839 26.786 8.8523C27.0364 9.7162 27.0642 10.6294 26.8669 11.507C27.6212 11.9892 28.2419 12.6536 28.6719 13.4389C29.1018 14.2242 29.3272 15.105 29.3272 16.0003C29.3272 16.8956 29.1018 17.7764 28.6719 18.5617C28.2419 19.347 27.6212 20.0113 26.8669 20.4936C27.0634 21.3698 27.0354 22.2815 26.7856 23.144C26.5358 24.0065 26.0723 24.792 25.438 25.4277C24.8037 26.0633 24.0191 26.5285 23.1571 26.7801C22.2951 27.0317 21.3836 27.0616 20.5069 26.867C20.0253 27.6241 19.3604 28.2475 18.5738 28.6794C17.7872 29.1113 16.9043 29.3377 16.0069 29.3377C15.1096 29.3377 14.2267 29.1113 13.4401 28.6794C12.6535 28.2475 11.9886 27.6241 11.5069 26.867C10.6307 27.0634 9.71906 27.0354 8.85653 26.7856C7.994 26.5358 7.20851 26.0723 6.57288 25.438C5.93725 24.8037 5.47207 24.0192 5.22047 23.1572C4.96886 22.2952 4.93898 21.3836 5.13359 20.507C4.37353 20.026 3.74748 19.3605 3.31366 18.5726C2.87983 17.7846 2.65234 16.8998 2.65234 16.0003C2.65234 15.1008 2.87983 14.216 3.31366 13.428C3.74748 12.6401 4.37353 11.9746 5.13359 11.4936Z" stroke="white" stroke-width="2.66667" stroke-linecap="round" stroke-linejoin="round"/>
<path d="M12 16.0007L14.6667 18.6673L20 13.334" stroke="white" stroke-width="2.66667" stroke-linecap="round" stroke-linejoin="round"/>
</svg>
