<svg width="32" height="32" viewBox="0 0 32 32" fill="none" xmlns="http://www.w3.org/2000/svg">
<rect width="32" height="31.7647" rx="2.54118" transform="matrix(-1 0 0 1 32 0)" fill="#EFEFEF" fill-opacity="0.33"/>
<path fill-rule="evenodd" clip-rule="evenodd" d="M22.2166 7.46687C21.867 7.16717 21.3406 7.20767 21.0409 7.55731L14.3703 15.3396C14.1027 15.6519 14.1027 16.1126 14.3703 16.4249L21.0409 24.2073C21.3406 24.5569 21.867 24.5974 22.2166 24.2978C22.5663 23.9981 22.6068 23.4716 22.3071 23.122L16.1016 15.8823L22.3071 8.6426C22.6068 8.29295 22.5663 7.76656 22.2166 7.46687ZM17.7694 7.46699C17.4197 7.16729 16.8933 7.20778 16.5936 7.55742L9.92299 15.3397C9.65539 15.652 9.65539 16.1128 9.92299 16.4251L16.5936 24.2074C16.8933 24.5571 17.4197 24.5975 17.7694 24.2979C18.119 23.9982 18.1595 23.4718 17.8598 23.1221L11.6543 15.8824L17.8598 8.64271C18.1595 8.29307 18.119 7.76667 17.7694 7.46699Z" fill="#616060"/>
</svg>
