<svg width="24" height="24" viewBox="0 0 24 24" fill="none" xmlns="http://www.w3.org/2000/svg">
<path d="M13.75 10.0005C13.75 10.4147 14.0858 10.7505 14.5 10.7505H15.1893L13.1768 12.7631C13.0791 12.8607 12.9209 12.8607 12.8232 12.7631L11.2374 11.1773C10.554 10.4939 9.44598 10.4939 8.76256 11.1773L6.46967 13.4702C6.17678 13.7631 6.17678 14.2379 6.46967 14.5308C6.76256 14.8237 7.23744 14.8237 7.53033 14.5308L9.82322 12.2379C9.92085 12.1403 10.0791 12.1403 10.1768 12.2379L11.7626 13.8237C12.446 14.5071 13.554 14.5071 14.2374 13.8237L16.25 11.8112V12.5005C16.25 12.9147 16.5858 13.2505 17 13.2505C17.4142 13.2505 17.75 12.9147 17.75 12.5005V10.0005C17.75 9.58628 17.4142 9.25049 17 9.25049H14.5C14.0858 9.25049 13.75 9.58628 13.75 10.0005Z" fill="#4E4A4A"/>
<path fill-rule="evenodd" clip-rule="evenodd" d="M11.9426 1.24951C9.63423 1.2495 7.82519 1.24949 6.41371 1.43926C4.96897 1.6335 3.82895 2.03884 2.93414 2.93365C2.03933 3.82846 1.63399 4.96848 1.43975 6.41322C1.24998 7.8247 1.24999 9.63374 1.25 11.9421V12.0569C1.24999 14.3653 1.24998 16.1743 1.43975 17.5858C1.63399 19.0305 2.03933 20.1706 2.93414 21.0654C3.82895 21.9602 4.96897 22.3655 6.41371 22.5598C7.82519 22.7495 9.63423 22.7495 11.9426 22.7495H12.0574C14.3658 22.7495 16.1748 22.7495 17.5863 22.5598C19.031 22.3655 20.1711 21.9602 21.0659 21.0654C21.9607 20.1706 22.366 19.0305 22.5603 17.5858C22.75 16.1743 22.75 14.3653 22.75 12.0569V11.9421C22.75 9.63374 22.75 7.8247 22.5603 6.41322C22.366 4.96848 21.9607 3.82846 21.0659 2.93365C20.1711 2.03884 19.031 1.6335 17.5863 1.43926C16.1748 1.24949 14.3658 1.2495 12.0574 1.24951H11.9426ZM3.9948 3.99431C4.56445 3.42465 5.33517 3.09776 6.61358 2.92588C7.91356 2.7511 9.62178 2.74951 12 2.74951C14.3782 2.74951 16.0864 2.7511 17.3864 2.92588C18.6648 3.09776 19.4355 3.42465 20.0052 3.99431C20.5749 4.56396 20.9018 5.33468 21.0736 6.61309C21.2484 7.91307 21.25 9.62129 21.25 11.9995C21.25 14.3777 21.2484 16.0859 21.0736 17.3859C20.9018 18.6643 20.5749 19.435 20.0052 20.0047C19.4355 20.5744 18.6648 20.9013 17.3864 21.0731C16.0864 21.2479 14.3782 21.2495 12 21.2495C9.62178 21.2495 7.91356 21.2479 6.61358 21.0731C5.33517 20.9013 4.56445 20.5744 3.9948 20.0047C3.42514 19.435 3.09825 18.6643 2.92637 17.3859C2.75159 16.0859 2.75 14.3777 2.75 11.9995C2.75 9.62129 2.75159 7.91307 2.92637 6.61309C3.09825 5.33468 3.42514 4.56396 3.9948 3.99431Z" fill="#4E4A4A"/>
</svg>
