<svg width="70" height="70" viewBox="0 0 70 70" fill="none" xmlns="http://www.w3.org/2000/svg">
<path d="M49.582 43.7501H43.7487C42.9752 43.7501 42.2333 43.4428 41.6863 42.8958C41.1393 42.3488 40.832 41.607 40.832 40.8334C40.832 40.0599 41.1393 39.318 41.6863 38.771C42.2333 38.224 42.9752 37.9167 43.7487 37.9167H49.582C50.3556 37.9167 51.0974 37.6095 51.6444 37.0625C52.1914 36.5155 52.4987 35.7736 52.4987 35.0001V20.4167C52.4987 19.6432 52.1914 18.9013 51.6444 18.3544C51.0974 17.8074 50.3556 17.5001 49.582 17.5001H34.9987C34.2251 17.5001 33.4833 17.1928 32.9363 16.6458C32.3893 16.0988 32.082 15.357 32.082 14.5834C32.082 13.8099 32.3893 13.068 32.9363 12.521C33.4833 11.974 34.2251 11.6667 34.9987 11.6667H49.582C51.9027 11.6667 54.1283 12.5886 55.7692 14.2296C57.4102 15.8705 58.332 18.0961 58.332 20.4167V35.0001C58.332 37.3207 57.4102 39.5463 55.7692 41.1873C54.1283 42.8282 51.9027 43.7501 49.582 43.7501Z" fill="#06C44F"/>
<path d="M32.0846 5.83325H26.2513C24.7042 5.83325 23.2205 6.44783 22.1265 7.5418C21.0326 8.63576 20.418 10.1195 20.418 11.6666V20.4166C20.418 21.1901 20.7253 21.932 21.2722 22.479C21.8192 23.026 22.5611 23.3333 23.3346 23.3333H35.0013C35.7749 23.3333 36.5167 23.026 37.0637 22.479C37.6107 21.932 37.918 21.1901 37.918 20.4166V11.6666C37.918 10.1195 37.3034 8.63576 36.2094 7.5418C35.1155 6.44783 33.6317 5.83325 32.0846 5.83325Z" fill="#06C44F"/>
<path d="M37.918 17.5H20.418C18.0973 17.5 15.8717 18.4219 14.2308 20.0628C12.5898 21.7038 11.668 23.9294 11.668 26.25V58.3333C11.668 59.8804 12.2826 61.3642 13.3765 62.4581C14.4705 63.5521 15.9542 64.1667 17.5013 64.1667H40.8346C42.3817 64.1667 43.8655 63.5521 44.9594 62.4581C46.0534 61.3642 46.668 59.8804 46.668 58.3333V26.25C46.668 23.9294 45.7461 21.7038 44.1052 20.0628C42.4642 18.4219 40.2386 17.5 37.918 17.5Z" fill="black"/>
</svg>
