<svg width="28" height="28" viewBox="0 0 28 28" fill="none" xmlns="http://www.w3.org/2000/svg">
<rect width="28" height="28" rx="3" fill="#EFEFEF"/>
<path d="M14.5892 5.91058C14.2638 5.58515 13.7362 5.58515 13.4107 5.91058L9.03574 10.2856C8.71031 10.611 8.71031 11.1387 9.03574 11.4641C9.36118 11.7895 9.88882 11.7895 10.2143 11.4641L13.1667 8.51168V16.4998C13.1667 16.9601 13.5398 17.3332 14 17.3332C14.4602 17.3332 14.8333 16.9601 14.8333 16.4998V8.51168L17.7857 11.4641C18.1112 11.7895 18.6388 11.7895 18.9642 11.4641C19.2897 11.1387 19.2897 10.611 18.9642 10.2856L14.5892 5.91058ZM7.33333 13.1665C7.79357 13.1665 8.16667 13.5396 8.16667 13.9998V18.5832C8.16667 19.2735 8.72631 19.8332 9.41667 19.8332H18.5833C19.2737 19.8332 19.8333 19.2735 19.8333 18.5832V13.9998C19.8333 13.5396 20.2064 13.1665 20.6667 13.1665C21.1269 13.1665 21.5 13.5396 21.5 13.9998V18.5832C21.5 20.194 20.1942 21.4998 18.5833 21.4998H9.41667C7.80583 21.4998 6.5 20.194 6.5 18.5832V13.9998C6.5 13.5396 6.8731 13.1665 7.33333 13.1665Z" fill="#212121"/>
</svg>
