<svg width="28" height="28" viewBox="0 0 28 28" fill="none" xmlns="http://www.w3.org/2000/svg">
<rect width="28" height="28" rx="14" fill="#F7F7F7"/>
<g clip-path="url(#clip0_0_4121)">
<path fill-rule="evenodd" clip-rule="evenodd" d="M12.3436 7.86788C9.24584 8.19497 6.83203 10.8157 6.83203 14.0002C6.83203 17.4059 9.59294 20.1668 12.9987 20.1668C16.1832 20.1668 18.8039 17.753 19.131 14.6552C18.2465 15.7781 16.8738 16.5002 15.332 16.5002C12.6626 16.5002 10.4987 14.3362 10.4987 11.6668C10.4987 10.1251 11.2208 8.75236 12.3436 7.86788ZM5.83203 14.0002C5.83203 10.0421 9.04066 6.8335 12.9987 6.8335C13.4764 6.8335 13.7156 7.21434 13.7566 7.51768C13.796 7.80948 13.6882 8.1806 13.3527 8.38328C12.2405 9.05536 11.4987 10.2747 11.4987 11.6668C11.4987 13.7839 13.215 15.5002 15.332 15.5002C16.7242 15.5002 17.9435 14.7584 18.6156 13.6462C18.8182 13.3107 19.1894 13.2028 19.4812 13.2423C19.7845 13.2832 20.1654 13.5224 20.1654 14.0002C20.1654 17.9582 16.9568 21.1668 12.9987 21.1668C9.04066 21.1668 5.83203 17.9582 5.83203 14.0002ZM16.9987 7.8335C16.7226 7.8335 16.4987 7.60964 16.4987 7.3335C16.4987 7.05736 16.7226 6.8335 16.9987 6.8335H19.6654C19.8676 6.8335 20.0499 6.95532 20.1273 7.14216C20.2047 7.32899 20.1619 7.54405 20.0189 7.68705L18.2058 9.50016H19.6654C19.9415 9.50016 20.1654 9.72402 20.1654 10.0002C20.1654 10.2763 19.9415 10.5002 19.6654 10.5002H16.9987C16.7965 10.5002 16.6142 10.3783 16.5368 10.1915C16.4594 10.0047 16.5022 9.78961 16.6452 9.64661L18.4582 7.8335H16.9987ZM13.9987 11.8335C13.7226 11.8335 13.4987 11.6096 13.4987 11.3335C13.4987 11.0574 13.7226 10.8335 13.9987 10.8335H15.9987C16.2009 10.8335 16.3832 10.9553 16.4606 11.1422C16.538 11.329 16.4952 11.544 16.3522 11.687L15.2058 12.8335H15.9987C16.2748 12.8335 16.4987 13.0574 16.4987 13.3335C16.4987 13.6096 16.2748 13.8335 15.9987 13.8335H13.9987C13.7965 13.8335 13.6142 13.7117 13.5368 13.5248C13.4594 13.338 13.5022 13.123 13.6452 12.98L14.7916 11.8335H13.9987Z" fill="#06C44F"/>
</g>
<defs>
<clipPath id="clip0_0_4121">
<rect width="16" height="16" fill="white" transform="translate(5 6)"/>
</clipPath>
</defs>
</svg>
