<svg width="18" height="18" viewBox="0 0 18 18" fill="none" xmlns="http://www.w3.org/2000/svg">
<path d="M8.71875 2.90622C8.71875 3.09891 8.7953 3.2837 8.93155 3.41995C9.0678 3.5562 9.25259 3.63275 9.44528 3.63275C9.63797 3.63275 9.82276 3.5562 9.95901 3.41995C10.0953 3.2837 10.1718 3.09891 10.1718 2.90622C10.1718 2.71353 10.0953 2.52873 9.95901 2.39248C9.82276 2.25623 9.63797 2.17969 9.44528 2.17969C9.25259 2.17969 9.0678 2.25623 8.93155 2.39248C8.7953 2.52873 8.71875 2.71353 8.71875 2.90622Z" stroke="#06C44F" stroke-width="1.45306" stroke-linecap="round" stroke-linejoin="round"/>
<path d="M5.08594 15.2567L7.26553 12.3506" stroke="#06C44F" stroke-width="1.45306" stroke-linecap="round" stroke-linejoin="round"/>
<path d="M11.6248 15.2569L10.1718 12.3508L7.99219 10.1712L8.71872 5.81201" stroke="#06C44F" stroke-width="1.45306" stroke-linecap="round" stroke-linejoin="round"/>
<path d="M4.35938 8.71813L5.81243 6.53854L8.71855 5.81201L10.8981 7.9916L13.0777 8.71813" stroke="#06C44F" stroke-width="1.45306" stroke-linecap="round" stroke-linejoin="round"/>
</svg>
