<svg width="54" height="54" viewBox="0 0 54 54" fill="none" xmlns="http://www.w3.org/2000/svg">
<path d="M51.8649 32.0537C52.7453 32.2327 53.6092 31.6643 53.7348 30.7747C54.2186 27.3485 54.0399 23.8559 53.203 20.4881C52.235 16.5932 50.4109 12.963 47.8634 9.86178C45.3159 6.76056 42.1091 4.26625 38.4763 2.56037C34.8434 0.854488 30.876 -0.0200615 26.8627 0.000350952C22.8493 0.0207596 18.891 0.935623 15.2757 2.67837C11.6605 4.42112 8.47917 6.94791 5.96335 10.0749C3.44753 13.2019 1.66045 16.8504 0.732161 20.7549C-0.0705144 24.1312 -0.213644 27.6254 0.304943 31.0465C0.439591 31.9348 1.30925 32.4943 2.1878 32.3064C3.06636 32.1185 3.6204 31.2543 3.49309 30.365C3.07124 27.4181 3.20661 24.4131 3.8974 21.5075C4.71384 18.0734 6.28557 14.8645 8.49824 12.1143C10.7109 9.36416 13.5089 7.14185 16.6885 5.6091C19.8681 4.07635 23.3495 3.27173 26.8792 3.25378C30.409 3.23582 33.8983 4.00499 37.0934 5.50532C40.2884 7.00564 43.1089 9.19938 45.3494 11.9269C47.5899 14.6544 49.1942 17.8472 50.0455 21.2728C50.7658 24.1712 50.9318 27.1747 50.5399 30.1257C50.4217 31.0163 50.9845 31.8748 51.8649 32.0537Z" fill="#A5A5A5" fill-opacity="0.32"/>
<path d="M47.6752 12.4697C48.4567 11.9204 48.6493 10.8376 48.0511 10.0929C45.8344 7.33285 43.0928 5.0311 39.9788 3.32405C36.3584 1.33939 32.331 0.211449 28.2064 0.0269661C24.0818 -0.157516 19.9699 0.606373 16.1867 2.25989C12.9328 3.68212 9.9966 5.72992 7.54236 8.28101C6.88011 8.9694 6.97522 10.0651 7.70459 10.6819C8.43396 11.2987 9.5209 11.2024 10.1896 10.5203C12.2977 8.36984 14.8029 6.63988 17.5721 5.42954C20.8706 3.98787 24.4557 3.32185 28.0519 3.4827C31.648 3.64354 35.1594 4.62697 38.316 6.35736C40.966 7.81009 43.3068 9.75679 45.2145 12.0869C45.8196 12.826 46.8937 13.0189 47.6752 12.4697Z" fill="#06C44F"/>
</svg>
