<svg width="24" height="24" viewBox="0 0 24 24" fill="none" xmlns="http://www.w3.org/2000/svg">
<rect width="24" height="24" rx="12" fill="#06C44F"/>
<path d="M11.0191 9.33301H12.9809C13.3538 9.33301 13.7455 9.33453 13.9121 9.74455C14.0293 10.033 14.0293 10.633 13.9121 10.9215C13.7455 11.3315 13.3538 11.333 12.9809 11.333H11.0191C10.6462 11.333 10.2545 11.3315 10.0879 10.9215C9.9707 10.633 9.9707 10.033 10.0879 9.74455C10.2545 9.33453 10.6462 9.33301 11.0191 9.33301Z" stroke="white" stroke-width="1.125" stroke-linecap="round" stroke-linejoin="round"/>
<path d="M11.0191 11.3335H12.9809C13.3538 11.3335 13.7455 11.335 13.9121 11.745C14.0293 12.0335 14.0293 12.6335 13.9121 12.922C13.7455 13.332 13.3538 13.3335 12.9809 13.3335H11.0191C10.6462 13.3335 10.2545 13.332 10.0879 12.922C9.9707 12.6335 9.9707 12.0335 10.0879 11.745C10.2545 11.335 10.6462 11.3335 11.0191 11.3335Z" stroke="white" stroke-width="1.125" stroke-linecap="round" stroke-linejoin="round"/>
<path d="M9 16.6665C9.02813 16.5821 9.04219 16.5399 9.05724 16.5025C9.24937 16.0246 9.69959 15.7001 10.2137 15.669C10.254 15.6665 10.2985 15.6665 10.3874 15.6665H13.6126C13.7015 15.6665 13.746 15.6665 13.7863 15.669C14.3004 15.7001 14.7507 16.0246 14.9427 16.5025C14.9578 16.5399 14.9719 16.5821 15 16.6665" stroke="white" stroke-width="1.125" stroke-linecap="round" stroke-linejoin="round"/>
<path d="M12.0007 15.6665V18.6665M12.0007 18.6665H16.6673M12.0007 18.6665H7.33398" stroke="white" stroke-width="1.125" stroke-linecap="round" stroke-linejoin="round"/>
<path d="M18 9.66634L17.1973 8.72984C16.6082 8.04259 16.3137 7.69895 15.9159 7.51598C15.518 7.33301 15.0654 7.33301 14.1603 7.33301H9.83974C8.93457 7.33301 8.48198 7.33301 8.08415 7.51598C7.68633 7.69895 7.39179 8.04259 6.80271 8.72984L6 9.66634" stroke="white" stroke-width="1.125" stroke-linecap="round" stroke-linejoin="round"/>
<path d="M12 9.3335V5.3335" stroke="white" stroke-width="1.125" stroke-linecap="round" stroke-linejoin="round"/>
</svg>
