<svg width="16" height="16" viewBox="0 0 16 16" fill="none" xmlns="http://www.w3.org/2000/svg">
<path d="M1.97656 7.90242C1.97656 8.68074 2.12986 9.45144 2.42772 10.1705C2.72557 10.8896 3.16213 11.543 3.71249 12.0933C4.26285 12.6437 4.91622 13.0802 5.63529 13.3781C6.35437 13.6759 7.12507 13.8292 7.90339 13.8292C8.68171 13.8292 9.45242 13.6759 10.1715 13.3781C10.8906 13.0802 11.5439 12.6437 12.0943 12.0933C12.6446 11.543 13.0812 10.8896 13.3791 10.1705C13.6769 9.45144 13.8302 8.68074 13.8302 7.90242C13.8302 6.33052 13.2058 4.82301 12.0943 3.71151C10.9828 2.60002 9.47528 1.97559 7.90339 1.97559C6.3315 1.97559 4.82399 2.60002 3.71249 3.71151C2.60099 4.82301 1.97656 6.33052 1.97656 7.90242Z" stroke="black" stroke-width="0.878049" stroke-linecap="round" stroke-linejoin="round"/>
<path d="M7.90234 4.60962V7.9023L9.87795 9.87791" stroke="black" stroke-width="0.878049" stroke-linecap="round" stroke-linejoin="round"/>
</svg>
