<svg width="24" height="24" viewBox="0 0 24 24" fill="none" xmlns="http://www.w3.org/2000/svg">
<path d="M14.2995 1.1295V1.128C14.625 4.7055 16.494 6.567 18.279 8.343C20.055 10.11 21.747 11.7945 21.747 15C21.747 20.25 17.247 24 11.997 24C6.747 24 2.25 20.268 2.25 15C2.25 13.053 3.054 11.16 4.3875 10.071C4.9515 9.609 5.6805 10.071 5.94 10.752C6.69 12.7305 8.3715 12.6285 9 12C9.423 11.577 9.5115 10.7835 8.9955 9.75C6.51 4.7805 10.5525 1.125 13.155 0.218996C13.74 0.0134959 14.244 0.509996 14.2995 1.1295ZM11.997 21.75C16.245 21.75 19.497 18.78 19.497 15C19.497 12.8055 18.477 11.715 16.6785 9.9255L16.6245 9.87C15.105 8.358 13.1745 6.435 12.3735 3.219C11.8905 3.603 11.4285 4.0875 11.0775 4.6485C10.4295 5.6925 10.146 7.0185 11.0085 8.7435C11.718 10.164 12.0135 12.1695 10.5915 13.5915C9.6765 14.5065 8.274 14.8515 6.987 14.541C6.15129 14.3358 5.39914 13.8781 4.833 13.23C4.61124 13.7937 4.49825 14.3943 4.5 15C4.5 18.795 7.746 21.75 11.997 21.75Z" fill="#727775"/>
</svg>
