<svg width="24" height="24" viewBox="0 0 24 24" fill="none" xmlns="http://www.w3.org/2000/svg">
<path d="M2.01603 20.3051C3.14467 21.9196 8.05753 23.1871 10.3778 20.1645C12.8875 21.3649 17.027 20.9928 20.3972 19.1134C20.8659 18.8521 21.3093 18.5222 21.5808 18.0593C22.1938 17.0143 22.2083 15.5644 21.09 13.4251C19.2255 8.77072 15.8721 4.68513 14.5182 3.04212C14.2402 2.78865 12.4668 2.42868 11.3853 2.08279C10.9076 1.93477 10.0181 1.83664 8.95423 3.23862C8.44987 3.90329 6.1587 5.5357 9.06578 6.63346C9.51616 6.74806 9.84723 6.95939 11.9019 6.58404C12.1695 6.53761 12.8376 6.58404 13.3084 7.41041L14.2917 8.81662C14.3832 8.94752 14.4426 9.09813 14.4608 9.25682C14.6331 10.7557 14.6275 12.6323 15.4632 13.5826C14.1724 12.6492 10.7992 11.5406 8.25761 14.6951M2 12.94C3.2082 11.791 6.71008 9.97592 10.416 12.5216" stroke="#727775" stroke-width="2" stroke-linecap="round" stroke-linejoin="round"/>
</svg>
