<svg width="18" height="18" viewBox="0 0 18 18" fill="none" xmlns="http://www.w3.org/2000/svg">
<path fill-rule="evenodd" clip-rule="evenodd" d="M9.43834 1.27293C9.32425 1.24236 9.20417 1.24236 9.09009 1.27293C9.04592 1.28476 8.97175 1.3161 8.82025 1.44243C8.66209 1.57427 8.47075 1.76482 8.17667 2.05884C7.88267 2.35287 7.69217 2.54427 7.56025 2.70239C7.434 2.85389 7.40259 2.92807 7.39075 2.97224C7.36025 3.08631 7.36025 3.20642 7.39075 3.3205C7.40259 3.36467 7.434 3.43884 7.56025 3.59034C7.69217 3.74847 7.88267 3.93987 8.17667 4.23389L13.6828 9.74C13.9768 10.034 14.1682 10.2245 14.3263 10.3564C14.4778 10.4827 14.552 10.5141 14.5962 10.5259C14.7103 10.5564 14.8303 10.5564 14.9444 10.5259C14.9886 10.5141 15.0628 10.4827 15.2143 10.3564C15.3724 10.2245 15.5638 10.034 15.8578 9.74C16.1518 9.44592 16.3424 9.25459 16.4743 9.09642C16.6006 8.94492 16.6319 8.87075 16.6438 8.82659C16.6743 8.7125 16.6743 8.59242 16.6438 8.47834C16.6319 8.43417 16.6006 8.36 16.4743 8.2085C16.3424 8.05033 16.1518 7.85892 15.8578 7.56492L15.246 6.95314C14.833 6.54012 14.833 5.87049 15.246 5.45746C15.5469 5.15657 15.7272 4.97442 15.84 4.82659C15.8919 4.75857 15.9133 4.71783 15.9223 4.69654C15.9286 4.68139 15.9283 4.67709 15.9282 4.67603C15.9283 4.67496 15.9286 4.67028 15.9223 4.65513C15.9133 4.63384 15.8919 4.59309 15.84 4.52507C15.7272 4.37724 15.5469 4.19509 15.246 3.8942L14.0225 2.67063C13.7216 2.36974 13.5394 2.18947 13.3916 2.07668C13.3236 2.02478 13.2828 2.0033 13.2615 1.99442C13.2464 1.9881 13.2421 1.98841 13.241 1.98849C13.2409 1.98849 13.2411 1.98849 13.241 1.98849C13.2403 1.98849 13.2364 1.98761 13.2202 1.99442C13.1988 2.0033 13.1581 2.02478 13.0901 2.07668C12.966 2.17134 12.8178 2.31355 12.5954 2.53472L13.9887 3.928C14.2328 4.17208 14.2328 4.5678 13.9887 4.81189C13.7446 5.05596 13.3488 5.05596 13.1048 4.81189L10.3518 2.05884C10.0578 1.76482 9.86634 1.57427 9.70817 1.44243C9.55667 1.3161 9.4825 1.28476 9.43834 1.27293ZM11.7114 1.65075L11.2165 1.15584C10.947 0.886269 10.7156 0.654852 10.5087 0.482369C10.2903 0.300294 10.0536 0.143685 9.76192 0.0655187C9.43584 -0.0218396 9.09259 -0.0218396 8.76659 0.0655187C8.47484 0.143685 8.23809 0.300294 8.01975 0.482369C7.81292 0.654852 7.5815 0.886269 7.31192 1.15585L7.27369 1.19409C7.00412 1.46364 6.7727 1.69504 6.60023 1.9019C6.41815 2.12027 6.26155 2.35699 6.18338 2.64871C6.09603 2.97474 6.09603 3.318 6.18338 3.64403C6.26155 3.93575 6.41815 4.17247 6.60023 4.39084C6.7727 4.59769 7.00411 4.82909 7.27369 5.09864L7.76859 5.59351L5.59351 7.76859L5.09864 7.27369C4.82909 7.00411 4.59769 6.7727 4.39084 6.60023C4.17247 6.41815 3.93575 6.26155 3.64403 6.18338C3.318 6.09603 2.97474 6.09602 2.64871 6.18338C2.35699 6.26154 2.12027 6.41815 1.9019 6.60023C1.69504 6.77271 1.46364 7.00413 1.19408 7.2737L1.15585 7.31192C0.886269 7.5815 0.654852 7.81292 0.482369 8.01975C0.300294 8.23809 0.143685 8.47484 0.0655187 8.76659C-0.0218396 9.09259 -0.0218396 9.43584 0.0655187 9.76192C0.143685 10.0536 0.300294 10.2903 0.482369 10.5087C0.654844 10.7156 0.886252 10.9469 1.15582 11.2165L1.17496 11.2357L1.65075 11.7114C1.42872 11.9343 1.22919 12.1401 1.0829 12.3318C0.896285 12.5764 0.738494 12.8701 0.738494 13.2408C0.738494 13.6116 0.896285 13.9053 1.0829 14.1498C1.25284 14.3726 1.49461 14.6143 1.76008 14.8797L3.03698 16.1566C3.30239 16.4221 3.54411 16.6638 3.76684 16.8338C4.01144 17.0204 4.30504 17.1782 4.67584 17.1782C5.04662 17.1782 5.34024 17.0204 5.58483 16.8338C5.77656 16.6875 5.98237 16.4879 6.20524 16.2659L6.7002 16.7609C6.96974 17.0304 7.20113 17.2618 7.408 17.4343C7.62634 17.6163 7.86309 17.773 8.15475 17.8512C8.48083 17.9385 8.82409 17.9385 9.15009 17.8512C9.44184 17.773 9.67859 17.6163 9.89692 17.4343C10.1038 17.2618 10.3352 17.0304 10.6047 16.7608L10.643 16.7226C10.9126 16.453 11.144 16.2217 11.3164 16.0147C11.4985 15.7964 11.6551 15.5597 11.7333 15.268C11.8207 14.9419 11.8207 14.5987 11.7333 14.2727C11.6551 13.9809 11.4985 13.7442 11.3164 13.5258C11.144 13.319 10.9125 13.0876 10.6429 12.818L10.1481 12.3232L12.3232 10.1481L12.818 10.643C13.0876 10.9126 13.319 11.144 13.5258 11.3164C13.7442 11.4985 13.9809 11.6551 14.2727 11.7333C14.5987 11.8207 14.9419 11.8207 15.2679 11.7333C15.5597 11.6551 15.7964 11.4985 16.0147 11.3164C16.2217 11.144 16.453 10.9126 16.7226 10.643L16.7608 10.6048C17.0304 10.3352 17.2618 10.1038 17.4343 9.89692C17.6163 9.67859 17.773 9.44184 17.8512 9.15009C17.9385 8.82409 17.9385 8.48083 17.8512 8.15475C17.773 7.86309 17.6163 7.62634 17.4343 7.408C17.2618 7.20111 17.0304 6.9697 16.7608 6.70014L16.2659 6.20524C16.4879 5.98237 16.6875 5.77656 16.8338 5.58483C17.0204 5.34024 17.1782 5.04662 17.1782 4.67584C17.1782 4.30504 17.0204 4.01144 16.8338 3.76684C16.6638 3.54411 16.4221 3.30239 16.1566 3.03698L14.8797 1.76007C14.6143 1.49461 14.3726 1.25284 14.1498 1.0829C13.9053 0.896285 13.6116 0.738494 13.2408 0.738494C12.8701 0.738494 12.5764 0.896285 12.3318 1.0829C12.1401 1.22919 11.9343 1.42872 11.7114 1.65075ZM16.1299 6.06925C16.1298 6.06917 16.13 6.06933 16.1299 6.06925V6.06925ZM11.4393 9.26425L8.65242 6.47739L6.47739 8.65242L9.26425 11.4393L11.4393 9.26425ZM2.53472 12.5954C2.31355 12.8178 2.17134 12.966 2.07668 13.0901C2.02478 13.1581 2.0033 13.1988 1.99442 13.2202C1.9881 13.2353 1.98841 13.2396 1.98849 13.2407C1.98841 13.2418 1.9881 13.2464 1.99442 13.2615C2.0033 13.2828 2.02478 13.3236 2.07668 13.3916C2.18947 13.5394 2.36974 13.7216 2.67064 14.0225L3.8942 15.246C4.19509 15.5469 4.37724 15.7272 4.52507 15.84C4.59309 15.8919 4.63384 15.9133 4.65513 15.9223C4.67145 15.9291 4.67517 15.9282 4.67584 15.9282C4.67575 15.9282 4.67589 15.9282 4.67584 15.9282C4.6769 15.9283 4.68139 15.9286 4.69654 15.9223C4.71783 15.9133 4.75857 15.8919 4.82659 15.84C4.97442 15.7272 5.15657 15.5469 5.45746 15.246C5.87049 14.833 6.54012 14.833 6.95314 15.246L7.56492 15.8578C7.85892 16.1518 8.05033 16.3424 8.2085 16.4743C8.36 16.6006 8.43417 16.6319 8.47834 16.6438C8.59242 16.6743 8.7125 16.6743 8.82659 16.6438C8.87075 16.6319 8.94492 16.6006 9.09642 16.4743C9.25459 16.3424 9.44592 16.1518 9.74 15.8578C10.034 15.5638 10.2245 15.3724 10.3564 15.2143C10.4828 15.0628 10.5141 14.9886 10.5259 14.9444C10.5564 14.8303 10.5564 14.7103 10.5259 14.5962C10.5141 14.552 10.4827 14.4778 10.3564 14.3263C10.2245 14.1682 10.034 13.9768 9.74 13.6828L4.23389 8.17667C3.93987 7.88267 3.74847 7.69217 3.59034 7.56025C3.43884 7.434 3.36467 7.40259 3.3205 7.39075C3.20643 7.36025 3.08631 7.36025 2.97224 7.39075C2.92807 7.40259 2.85389 7.434 2.70239 7.56025C2.54427 7.69217 2.35287 7.88267 2.05884 8.17667C1.76482 8.47075 1.57427 8.66209 1.44243 8.82025C1.3161 8.97175 1.28476 9.04592 1.27293 9.09009C1.24236 9.20417 1.24236 9.32425 1.27293 9.43834C1.28476 9.4825 1.3161 9.55667 1.44243 9.70817C1.57427 9.86634 1.76482 10.0578 2.05884 10.3518L4.81189 13.1048C5.05596 13.3488 5.05596 13.7446 4.81189 13.9887C4.5678 14.2328 4.17208 14.2328 3.928 13.9887L2.53472 12.5954Z" fill="#06C44F"/>
</svg>
