<svg width="20" height="20" viewBox="0 0 20 20" fill="none" xmlns="http://www.w3.org/2000/svg">
<g opacity="0.6">
<path d="M4.16797 10.8332C4.16797 10.3911 4.34356 9.96722 4.65612 9.65466C4.96868 9.3421 5.39261 9.1665 5.83464 9.1665H14.168C14.61 9.1665 15.0339 9.3421 15.3465 9.65466C15.659 9.96722 15.8346 10.3911 15.8346 10.8332V15.8332C15.8346 16.2752 15.659 16.6991 15.3465 17.0117C15.0339 17.3242 14.61 17.4998 14.168 17.4998H5.83464C5.39261 17.4998 4.96868 17.3242 4.65612 17.0117C4.34356 16.6991 4.16797 16.2752 4.16797 15.8332V10.8332Z" stroke="#948D8D" stroke-width="2" stroke-linecap="round" stroke-linejoin="round"/>
<path d="M9.16797 13.3333C9.16797 13.5543 9.25577 13.7663 9.41205 13.9226C9.56833 14.0789 9.78029 14.1667 10.0013 14.1667C10.2223 14.1667 10.4343 14.0789 10.5906 13.9226C10.7468 13.7663 10.8346 13.5543 10.8346 13.3333C10.8346 13.1123 10.7468 12.9004 10.5906 12.7441C10.4343 12.5878 10.2223 12.5 10.0013 12.5C9.78029 12.5 9.56833 12.5878 9.41205 12.7441C9.25577 12.9004 9.16797 13.1123 9.16797 13.3333Z" stroke="#948D8D" stroke-width="2" stroke-linecap="round" stroke-linejoin="round"/>
<path d="M6.66797 9.16667V5.83333C6.66797 4.94928 7.01916 4.10143 7.64428 3.47631C8.2694 2.85119 9.11725 2.5 10.0013 2.5C10.8854 2.5 11.7332 2.85119 12.3583 3.47631C12.9834 4.10143 13.3346 4.94928 13.3346 5.83333V9.16667" stroke="#948D8D" stroke-width="2" stroke-linecap="round" stroke-linejoin="round"/>
</g>
</svg>
