<svg width="19" height="19" viewBox="0 0 19 19" fill="none" xmlns="http://www.w3.org/2000/svg">
<path d="M14.5033 6.3335H4.48875L4.14042 3.16683H14.8596M9.5 15.0418C8.87011 15.0418 8.26602 14.7916 7.82062 14.3462C7.37522 13.9008 7.125 13.2967 7.125 12.6668C7.125 11.0835 9.5 8.39183 9.5 8.39183C9.5 8.39183 11.875 11.0835 11.875 12.6668C11.875 13.2967 11.6248 13.9008 11.1794 14.3462C10.734 14.7916 10.1299 15.0418 9.5 15.0418ZM2.375 1.5835L3.95833 16.0156C4.06125 16.8072 4.72625 17.4168 5.54167 17.4168H13.4583C14.25 17.4168 14.9388 16.8072 15.0417 16.0156L16.625 1.5835H2.375Z" fill="#27BEEA"/>
<path d="M14.5033 6.3335H4.48875L4.14042 3.16683H14.8596M9.5 15.0418C8.87011 15.0418 8.26602 14.7916 7.82062 14.3462C7.37522 13.9008 7.125 13.2967 7.125 12.6668C7.125 11.0835 9.5 8.39183 9.5 8.39183C9.5 8.39183 11.875 11.0835 11.875 12.6668C11.875 13.2967 11.6248 13.9008 11.1794 14.3462C10.734 14.7916 10.1299 15.0418 9.5 15.0418ZM2.375 1.5835L3.95833 16.0156C4.06125 16.8072 4.72625 17.4168 5.54167 17.4168H13.4583C14.25 17.4168 14.9388 16.8072 15.0417 16.0156L16.625 1.5835H2.375Z" stroke="#27BEEA" stroke-width="0.791667"/>
</svg>
