<svg width="24" height="24" viewBox="0 0 24 24" fill="none" xmlns="http://www.w3.org/2000/svg">
<rect width="24" height="24" rx="12" fill="#06C44F"/>
<g clip-path="url(#clip0_0_1724)">
<path fill-rule="evenodd" clip-rule="evenodd" d="M12.3847 5.85184C12.2934 5.82738 12.1973 5.82738 12.1061 5.85184C12.0707 5.8613 12.0114 5.88638 11.8902 5.98744C11.7637 6.09291 11.6106 6.24535 11.3753 6.48057C11.1401 6.71579 10.9877 6.86891 10.8822 6.99541C10.7812 7.11661 10.7561 7.17595 10.7466 7.21128C10.7222 7.30254 10.7222 7.39863 10.7466 7.4899C10.7561 7.52523 10.7812 7.58457 10.8822 7.70577C10.9877 7.83227 11.1401 7.98539 11.3753 8.22061L15.7802 12.6255C16.0155 12.8607 16.1685 13.0131 16.2951 13.1186C16.4163 13.2196 16.4756 13.2448 16.5109 13.2542C16.6022 13.2786 16.6983 13.2786 16.7895 13.2542C16.8249 13.2448 16.8842 13.2196 17.0054 13.1186C17.1319 13.0131 17.2851 12.8607 17.5203 12.6255C17.7555 12.3902 17.9079 12.2372 18.0134 12.1106C18.1145 11.9894 18.1395 11.9301 18.149 11.8948C18.1735 11.8035 18.1735 11.7074 18.149 11.6162C18.1395 11.5808 18.1145 11.5215 18.0134 11.4003C17.9079 11.2738 17.7555 11.1206 17.5203 10.8854L17.0308 10.396C16.7004 10.0656 16.7004 9.52988 17.0308 9.19946C17.2715 8.95875 17.4157 8.81303 17.506 8.69477C17.5475 8.64035 17.5647 8.60776 17.5718 8.59072C17.5769 8.5786 17.5766 8.57517 17.5765 8.57432C17.5766 8.57346 17.5769 8.56972 17.5718 8.5576C17.5647 8.54056 17.5475 8.50797 17.506 8.45355C17.4157 8.33529 17.2715 8.18957 17.0308 7.94886L16.052 6.97C15.8113 6.72928 15.6655 6.58507 15.5473 6.49484C15.4929 6.45332 15.4603 6.43614 15.4432 6.42903C15.4311 6.42398 15.4277 6.42422 15.4268 6.42428C15.4267 6.42428 15.4269 6.42428 15.4268 6.42428C15.4263 6.42428 15.4231 6.42358 15.4101 6.42903C15.3931 6.43614 15.3605 6.45332 15.3061 6.49484C15.2068 6.57057 15.0882 6.68434 14.9103 6.86127L16.0249 7.9759C16.2202 8.17116 16.2202 8.48774 16.0249 8.683C15.8297 8.87826 15.5131 8.87826 15.3178 8.683L13.1154 6.48057C12.8802 6.24535 12.7271 6.09291 12.6005 5.98744C12.4793 5.88638 12.42 5.8613 12.3847 5.85184ZM14.2031 6.1541L13.8072 5.75817C13.5916 5.54251 13.4065 5.35738 13.2409 5.21939C13.0663 5.07373 12.8769 4.94844 12.6435 4.88591C12.3827 4.81602 12.1081 4.81602 11.8473 4.88591C11.6139 4.94844 11.4245 5.07373 11.2498 5.21939C11.0843 5.35738 10.8992 5.54251 10.6835 5.75818L10.6529 5.78877C10.4373 6.00441 10.2521 6.18953 10.1142 6.35502C9.96851 6.52971 9.84323 6.71908 9.78069 6.95246C9.71081 7.21328 9.71081 7.4879 9.78069 7.74872C9.84323 7.9821 9.96851 8.17147 10.1142 8.34616C10.2521 8.51165 10.4373 8.69676 10.6529 8.9124L11.0489 9.3083L9.30879 11.0484L8.91289 10.6524C8.69725 10.4368 8.51214 10.2517 8.34665 10.1137C8.17196 9.96802 7.98259 9.84274 7.74921 9.7802C7.48839 9.71032 7.21377 9.71031 6.95295 9.7802C6.71957 9.84273 6.5302 9.96802 6.35551 10.1137C6.19001 10.2517 6.00489 10.4368 5.78925 10.6525L5.75867 10.683C5.543 10.8987 5.35787 11.0838 5.21988 11.2493C5.07422 11.424 4.94893 11.6134 4.8864 11.8468C4.81651 12.1076 4.81651 12.3822 4.8864 12.643C4.94893 12.8764 5.07422 13.0658 5.21988 13.2404C5.35786 13.406 5.54299 13.591 5.75864 13.8067L5.77395 13.822L6.15459 14.2026C5.97696 14.381 5.81734 14.5456 5.70031 14.699C5.55101 14.8946 5.42478 15.1296 5.42478 15.4262C5.42478 15.7228 5.55101 15.9577 5.70031 16.1534C5.83626 16.3316 6.02967 16.5249 6.24205 16.7372L7.26357 17.7588C7.47589 17.9712 7.66927 18.1646 7.84746 18.3005C8.04313 18.4498 8.27802 18.576 8.57465 18.576C8.87128 18.576 9.10617 18.4498 9.30185 18.3005C9.45523 18.1835 9.61988 18.0238 9.79818 17.8462L10.1941 18.2422C10.4098 18.4578 10.5949 18.643 10.7604 18.781C10.9351 18.9266 11.1245 19.0519 11.3578 19.1144C11.6187 19.1843 11.8933 19.1843 12.1541 19.1144C12.3875 19.0519 12.5769 18.9266 12.7515 18.781C12.917 18.643 13.1021 18.4578 13.3177 18.2422L13.3484 18.2116C13.5641 17.9959 13.7492 17.8108 13.8871 17.6453C14.0328 17.4706 14.1581 17.2812 14.2206 17.0479C14.2905 16.787 14.2905 16.5124 14.2206 16.2516C14.1581 16.0182 14.0328 15.8288 13.8871 15.6542C13.7492 15.4887 13.564 15.3036 13.3483 15.0879L12.9525 14.692L14.6925 12.952L15.0884 13.3479C15.3041 13.5636 15.4892 13.7487 15.6547 13.8866C15.8293 14.0323 16.0187 14.1576 16.2521 14.2201C16.5129 14.29 16.7875 14.29 17.0483 14.2201C17.2817 14.1576 17.4711 14.0323 17.6458 13.8866C17.8113 13.7487 17.9964 13.5636 18.2121 13.3479L18.2427 13.3173C18.4583 13.1016 18.6435 12.9165 18.7815 12.751C18.9271 12.5764 19.0524 12.387 19.1149 12.1536C19.1848 11.8928 19.1848 11.6182 19.1149 11.3573C19.0524 11.124 18.9271 10.9346 18.7815 10.7599C18.6435 10.5944 18.4583 10.4093 18.2427 10.1936L17.8467 9.79769C18.0243 9.61939 18.184 9.45474 18.301 9.30136C18.4503 9.10568 18.5765 8.87079 18.5765 8.57416C18.5765 8.27753 18.4503 8.04264 18.301 7.84697C18.1651 7.66878 17.9717 7.4754 17.7593 7.26308L16.7377 6.24155C16.5254 6.02918 16.3321 5.83577 16.1539 5.69982C15.9582 5.55052 15.7233 5.42429 15.4267 5.42429C15.1301 5.42429 14.8951 5.55052 14.6995 5.69982C14.5461 5.81685 14.3815 5.97647 14.2031 6.1541ZM17.7379 9.6889C17.7379 9.68883 17.738 9.68896 17.7379 9.6889V9.6889ZM13.9854 12.2449L11.7559 10.0154L10.0159 11.7554L12.2454 13.9849L13.9854 12.2449ZM6.86176 14.9098C6.68483 15.0877 6.57106 15.2063 6.49533 15.3056C6.45381 15.36 6.43663 15.3926 6.42952 15.4096C6.42447 15.4217 6.42471 15.4252 6.42477 15.426C6.42471 15.4269 6.42447 15.4306 6.42952 15.4427C6.43663 15.4598 6.45381 15.4924 6.49533 15.5468C6.58556 15.665 6.72977 15.8108 6.97049 16.0515L7.94935 17.0303C8.19006 17.271 8.33578 17.4152 8.45404 17.5055C8.50846 17.547 8.54105 17.5642 8.55809 17.5713C8.57115 17.5768 8.57412 17.576 8.57465 17.576C8.57459 17.576 8.57469 17.576 8.57465 17.576C8.57551 17.5761 8.57909 17.5764 8.59121 17.5713C8.60825 17.5642 8.64084 17.547 8.69526 17.5055C8.81352 17.4152 8.95924 17.271 9.19995 17.0303C9.53037 16.6999 10.0661 16.6999 10.3965 17.0303L10.8859 17.5198C11.1211 17.755 11.2743 17.9074 11.4008 18.0129C11.522 18.114 11.5813 18.139 11.6167 18.1485C11.7079 18.173 11.804 18.173 11.8953 18.1485C11.9306 18.139 11.9899 18.114 12.1111 18.0129C12.2377 17.9074 12.3907 17.755 12.626 17.5198C12.8612 17.2846 13.0136 17.1314 13.1191 17.0049C13.2202 16.8837 13.2453 16.8244 13.2547 16.789C13.2791 16.6978 13.2791 16.6017 13.2547 16.5104C13.2453 16.4751 13.2201 16.4158 13.1191 16.2946C13.0136 16.168 12.8612 16.015 12.626 15.7797L8.2211 11.3748C7.98588 11.1396 7.83276 10.9872 7.70626 10.8817C7.58506 10.7807 7.52572 10.7556 7.49039 10.7461C7.39913 10.7217 7.30303 10.7217 7.21177 10.7461C7.17644 10.7556 7.1171 10.7807 6.9959 10.8817C6.8694 10.9872 6.71628 11.1396 6.48106 11.3748C6.24584 11.6101 6.0934 11.7632 5.98793 11.8897C5.88687 12.0109 5.86179 12.0702 5.85233 12.1056C5.82787 12.1968 5.82787 12.2929 5.85233 12.3842C5.86179 12.4195 5.88687 12.4788 5.98793 12.6C6.0934 12.7266 6.24584 12.8797 6.48106 13.1149L8.68349 15.3173C8.87875 15.5126 8.87875 15.8292 8.68349 16.0244C8.48823 16.2197 8.17165 16.2197 7.97639 16.0244L6.86176 14.9098Z" fill="white"/>
</g>
<defs>
<clipPath id="clip0_0_1724">
<rect width="16" height="16" fill="white" transform="translate(4 4)"/>
</clipPath>
</defs>
</svg>
